<svg xmlns="http://www.w3.org/2000/svg" version="1.0" viewBox="0 0 1256 1096">
  <path class="svg-elem-1" d="M610.5 31.7c-12.1 1.5-36.3 9-51.5 16-21.9 10.1-63.3 43.4-70 56.4-1 1.9-2.6 4.1-3.5 4.9-.9.8-2.5 3-3.5 5.1-1.1 2-2.6 3.9-3.5 4.3-.9.3-2.7 3-4.1 5.9-1.3 3-3.3 6.2-4.4 7.2-2.7 2.4-6 10-6 13.5 0 1.5-.7 3.4-1.6 4.1-.9.7-2.9 3.6-4.5 6.4-2.3 4-2.9 6.2-2.9 11.2 0 3.4-.4 6.4-.9 6.7-.4.3-1.4 2.6-2.1 5.1-1.1 3.9-1 5.1.4 8.8 1.1 3 1.4 5.7 1 8.9-.5 3.6-.2 5.7 1.4 9 1.1 2.4 2.3 7 2.6 10.3 1.2 14 1.6 12.6-3.3 15.2-7.5 3.9-10.1 7.1-11.6 14.3-.5 2.2-2.1 4.7-4.6 6.8-2.5 2.2-4.3 4.8-5 7.5-.7 2.3-2.7 5.8-4.6 7.8-3.4 3.6-5.3 8.3-5.3 13 0 1.8-.9 3.2-2.6 4.4-2.6 1.7-6.3 8.6-6.4 11.8 0 1-1.8 3.5-4 5.6-3.2 3.1-4 4.5-4 7.4 0 4.9 2.9 12.2 7.9 20.1 2.3 3.6 4.1 6.7 4.1 7 0 .2-3.3 2.2-7.2 4.4-10.8 5.9-21.6 13.3-27.5 18.6-5.4 4.9-18.1 23.1-29.3 42-7.6 12.7-17.9 23.8-31.5 33.9-11.8 8.8-20.2 13.1-30.5 15.7-4.7 1.2-9.4 2.9-10.5 3.8-3.9 3.3-14.3 15.8-20.8 25-7.3 10.3-10.2 17.5-9.4 23.2.6 4.9 6.4 13.8 11.7 18.1 11.6 9.3 11.5 9.2 10.2 13.8-1.5 4.7-8.9 14.9-17.1 23.4-7.3 7.6-23.9 19.1-37.1 25.7-17.9 8.9-24.2 13-32.7 21.3-8.1 7.8-13.3 15.7-13.3 20.1 0 1.1-2 4.1-4.4 6.6-8 8.2-15.3 19.5-19.5 30.5-5.2 13.2-5.6 15.5-4 21.2.9 3.3 2.8 6.1 6.6 9.9 2.9 2.9 5.3 5.9 5.3 6.7 0 .8.8 2.1 1.9 3.1 1.2 1.1 2 3.6 2.4 7.4 1.2 13.8 11.1 29.2 20.7 32.4 3.8 1.2 5 2.3 7.8 7.1 3.8 6.6 12.2 13.8 20.7 17.8 6.8 3.3 7.7 3.4 14 1.7 4.3-1.2 4.9-1.1 11.2 2.1 5.2 2.7 8.2 3.5 14.7 4l8 .6 3.3 6c4 7.1 8.3 11.3 12.4 12.2 3.4.7 3.7 2.4 1.4 10.2-2.1 6.9-9.3 14.7-12.7 13.7-1.3-.4-6.2-1-10.9-1.3-6.9-.4-9.7-.2-14 1.3-3 1-7 1.7-9 1.6-2.2-.2-5.1.4-7.3 1.6-2.6 1.4-4.8 1.8-7.4 1.5-2.1-.3-6.1.2-8.9 1-3.5 1.1-7.5 1.4-12.5 1.1-7.6-.6-7.2-.7-15.1 4.9-2.2 1.6-3.1 1.7-6.5.6-4.9-1.4-8.6-.6-11.9 2.7-4.2 4.2-13.7 7.1-21.5 6.6l-6.6-.4-1.7-4.4c-2.1-5.6-6.2-8.1-10.7-6.5-4.5 1.6-15.9 10.4-22.1 17.1-7.8 8.4-10 13.5-10.8 25-.4 5.6-1.4 11.2-2.4 13.5-2.4 5.5-1.6 20 1.9 31.3 1.6 5.4 3.3 15.1 4.6 27.2 2 18 4.8 30 9 38.1 3 5.7 9 12.4 16 17.8 4.1 3.2 8.4 6.9 9.5 8.1 1.1 1.2 6.5 5.4 12 9.4 5.5 3.9 12 8.6 14.4 10.4 6 4.5 16.1 9.5 24.6 12.2 13.4 4.2 59.8 3.9 77-.5 10.8-2.8 36.4-12.2 67.5-24.9 8.7-3.5 18.6-5.8 53-12.1 10.7-2 22.2-4.2 25.5-5 9.9-2.2 37.1-5.6 41-4.9 1.9.3 9.3-.4 16.3-1.5 9.5-1.6 18.9-2.2 35.8-2.5 18.5-.3 23.9-.7 27.9-2.1 8.9-3.1 19.8-9.1 27.5-15.2 4.1-3.3 11.4-8.9 16.3-12.7 4.8-3.7 9.9-8.3 11.5-10.2 4.2-5.6 29.9-28.2 37.5-33.1 9.1-6 15.7-8.7 25.3-10.7 10.5-2.1 28.6-2.1 34.5-.1 4.2 1.5 4.5 1.5 6.2-.6 1.9-2.4 2.3-1.8.7 1.2-.9 1.5-.7 1.9.7 1.9 1 0 4.7.9 8.3 2.1 16.5 5.1 53 7.1 66.8 3.5 10.5-2.7 17.3-8.3 39.9-32.7 12-13.1 30.2-28.8 43.7-37.8 7.6-5.1 15.7-10.7 18-12.4 2.3-1.8 10.4-7 18.1-11.6 7.7-4.6 19.7-12 26.6-16.3l12.7-7.9 5.2 1.7c4.4 1.4 6 1.5 10.2.5 4.1-.9 5.3-.8 7.1.4 1.3.9 4.4 1.5 7.5 1.5 4.3 0 6 .5 8.4 2.5 2.3 2 4.1 2.5 8.1 2.5 2.8 0 7.1.7 9.4 1.6 3.6 1.4 5 1.5 8.3.5 2.9-.9 4.4-.9 6.4.1 2.2.9 3.7.8 8-.5 4.4-1.4 5.9-1.5 8.1-.5 2 .9 3.6.9 7.1 0 2.4-.7 6.2-1.2 8.5-1.2 2.2 0 5.2-.6 6.7-1.4 1.5-.7 4.6-1.3 6.9-1.3 3 0 5.5-.8 8-2.6 2.5-1.7 4.6-2.4 6.3-2.1 1.6.3 4.3-.4 7.3-2 2.6-1.4 6-2.6 7.6-2.6 1.5 0 4.7-1.3 7.2-2.9 2.5-1.5 6.2-3.4 8.2-4 2-.7 5.5-2.8 7.8-4.7 2.2-1.9 5.2-3.4 6.5-3.4 2.8 0 9.4-3.1 11.3-5.3.7-.9 3-1.8 5.2-2.2 2.3-.4 5.8-2.2 8.2-4.1 4.7-3.8 6.9-5 11-5.9 1.6-.3 4.8-2.6 7.2-5 2.4-2.5 5.2-4.5 6.3-4.5 3.2 0 11.5-6.2 13.6-10 1.2-2.2 3.8-4.6 6.7-6.3 5.8-3.2 10.7-9.5 11.5-14.8.6-3.4 1.3-4.2 6-6.9 5.9-3.3 9.4-7.8 12.5-16.1 1.1-2.9 3-6 4.1-6.7 2.9-2.1 6.8-11 6.8-15.8 0-2.6.6-4.7 1.6-5.5 3.4-2.8 5.6-8.9 5.2-14.8l-.3-5.6 6.5-.8c8-1 12.8-3.3 15.8-7.7 7.1-10.5 4.6-23.1-7-35.5-5.7-6.2-5.8-6.3-5.8-12.2 0-3.3-.5-8.5-1.1-11.6-1-4.7-.8-7.3 1.1-17.4 2.7-14.1 2.4-25.3-.8-30.5-1.5-2.6-2.1-5.7-2.4-14-.4-8.9-.9-11.5-3.1-16-1.5-2.9-3.4-8.7-4.3-12.8-1.8-8.1-3.5-12.3-6.6-15.6-1-1.2-2.6-4.9-3.4-8.3-1.7-7.4-4.3-12.8-7.7-16-1.4-1.3-3.4-4.8-4.3-7.8-2.1-6.7-7.8-15-12.4-18.1-2.1-1.4-4.7-4.6-6.3-7.9-4.2-8.2-11.1-14.6-18.6-17.4-5-1.8-6.8-3-8.6-6-2.7-4.2-6.4-7.1-12.8-9.9-2.4-1.1-6.1-3.3-8.2-5-2.1-1.6-5.9-3.6-8.4-4.4-2.7-.8-6.4-3.1-9.1-5.6-5.5-5.2-12.2-8.4-16-7.7-2.1.5-3.3 0-5.1-2-3.2-3.3-19.1-11.3-22.7-11.3-1.5 0-4.4-1.2-6.3-2.6-4.7-3.6-10.9-6.4-14.2-6.4-1.6 0-4.2-.9-5.7-2-5.1-3.6-11.4-6-16.1-6-3 0-5.1-.6-6-1.6-2.2-2.7-8.5-5.3-14.5-6-3.8-.5-7.5-1.8-11.1-4-6.9-4.2-13.2-5.5-20.3-4.3-4.7.7-6.1.6-10-1.4-3.7-1.8-6.3-2.2-15-2.3-5.8 0-13-.6-16.1-1.3-4.3-1-6.9-1.1-10.8-.2-3.7.8-6.5.8-10.3 0-6.5-1.4-18.6-.6-22.7 1.5-2.7 1.4-4 1.5-8.9.5-4.8-1-6.6-.9-11.3.4-4.6 1.4-6.7 1.5-11.4.6-6-1.1-11.3-.6-17.9 1.7-3.3 1.2-4.7 1.2-9.6-.1-3.2-.8-6.9-1.4-8.2-1.3-1.5.1-6.3-2.2-12.6-6.2-5.6-3.6-10.1-6.7-10.1-7 0-1.3 8.9-5.9 12.7-6.5 2.3-.4 5.5-1.8 7.1-3.1 1.6-1.3 5.1-2.9 7.9-3.4 3-.7 6.5-2.4 8.8-4.3 2.2-1.8 5.2-3.8 6.7-4.5 4.3-1.8 9.5-6.3 11.8-10 1.2-1.8 3.7-4.1 5.8-5.1 4.6-2.4 7.6-5.6 9.6-10.3.8-2.2 2.8-4.4 4.4-5.3 3.5-1.8 5.7-4.7 10.2-13.5 1.8-3.5 4.8-8.4 6.6-10.8 1.8-2.4 3.3-5 3.3-5.8 0-.8 1.2-3.7 2.6-6.5 2.1-3.9 2.5-5.9 2.1-9.1-.4-3 .1-5.9 1.9-10.7 3.7-9.6 4.5-16 3.3-25.5-.9-7-1.9-9.5-6.7-18.1-7.7-13.8-10.4-17.7-19.6-27.8-9.2-10-17.1-15.1-26-16.8-4.6-.8-6.4-1.8-10-5.4-2.9-2.8-6.4-5.1-10.4-6.5-3.8-1.4-6.8-3.2-7.7-4.7-2.3-3.5-7.3-5.3-16.8-6-6.8-.5-8.8-1.1-12-3.4-4.5-3.2-11-4.5-15-3-2.5 1-3.3.8-5.9-1.4-2.3-1.9-4.1-2.5-7.9-2.5-2.8 0-5.8.4-6.8 1-1.2.6-3.2.5-5.6-.1-2.7-.8-5-.8-8 .1-2.8.8-5.7.9-9.3.2-4.1-.7-6.2-.6-10.5.9-3 1-7.4 1.8-9.8 1.8-13.3.1-21.7.9-24.4 2.3-1.6.8-5 1.8-7.4 2.1-2.6.3-6.2 1.8-8.8 3.6-2.9 2-5.6 3.1-7.9 3.1-1.9 0-6 1.3-9.2 2.9-3.1 1.5-7.8 3.1-10.3 3.5-2.6.4-6.6 2-9.1 3.5-2.4 1.5-6.5 3.1-9 3.5-2.5.4-6.6 2-9.2 3.6-2.6 1.7-5.7 3-6.9 3-1.2.1-3.9.7-5.9 1.4-2.1.8-3.8 1-3.8.6 0-.5 3-3.5 6.8-6.9 9-8 23.2-15.2 39.2-19.7 15.9-4.4 20.7-6.8 24.3-12 4.6-6.5 3.4-16.8-2.6-23.2-2.9-3.2-10.3-6.9-17.4-8.7-5.3-1.4-21.7-1.8-29.8-.8zm24.7 9.4c6.5 1.4 9.5 2.9 13.1 6.4 6.3 6.4 2.3 10.5-17.8 18.1-22.2 8.4-27.6 11.4-41.8 23.9-8 7-19 19.4-21.9 24.8-1.3 2.4-.8 3-3.8-5-1.7-4.5-6.6-7.3-12.7-7.3-5.5 0-12.5-2.7-21.2-8-5.1-3.2-7.5-3.4-5.1-.6.6.9 3.6 3.1 6.5 5 6 4 7.1 5.9 4.9 8.1-2.4 2.4-7.7 1.8-17.4-2-9.9-3.9-10.4-4-9.4-2.4.4.7 4 2.7 8.1 4.6 11 5.1 11 8.3 0 8.3-4.4 0-7.1-.7-11.7-3-6.9-3.5-7.1-3.5-6.4-1.5.4.9 3.7 3.4 7.5 5.6 7.4 4.3 8.4 6.2 4.8 9.5-4 3.6-15.4 1.6-23.7-4.1-.9-.7 2.3-5.9 5.7-9.3 2.3-2.2 4.1-4.7 4.1-5.4 0-1.4 17.6-18.3 26-24.9 2.5-2 8.6-6.3 13.5-9.7 34.9-23.4 75-36.1 98.7-31.1zm89.7 36c3.1.7 4.7.6 5.7-.2.9-.8 3.3-.9 7.2-.5 3.1.4 8.5.7 11.8.6 3.6-.1 7.7.5 9.9 1.4 2.1.9 5.7 1.6 8 1.6 2.4 0 6.7.8 9.7 1.9 2.9 1 8.7 2.9 12.8 4.1 4.1 1.3 8.9 3.3 10.5 4.5 1.7 1.2 6.2 3.8 10 5.7 24.9 12.2 37.3 20.6 49 33 11.4 12.2 16.7 20.8 19.6 32.3 1.2 4.9.3 17.7-1.1 14-.6-1.7-1.1-1.3-3.3 3.1-2.5 4.9-15.3 18.1-16.5 17-.3-.3.2-1.4 1.1-2.3.8-1 3.4-5.6 5.7-10.3l4.2-8.5-.5-14c-.5-13.9-2.5-24.5-4.8-24.5-.6 0-.8.8-.4 1.9 1.4 4.5 2.4 19.3 1.9 27.1-.5 6.6-1.4 10.1-3.9 15.6-3.6 8-9.7 15.4-12.7 15.4-1.7 0-1.3-.7 2-4.5 6.5-7.4 7.6-10.6 8-23.2.3-7.9-.1-13.6-1.3-19.5-2-9.9-7.2-26.5-8.5-27.3-1.5-.9-1.2 1 2 13.8 6.5 26.1 6.3 43.2-.7 50.9-3 3.3-3.2 1.8-.6-4 3-6.6 3.5-15.3 1.4-24.1-2-8-7.8-21.7-11.9-28-1.9-3.1-5.9-9.8-8.8-14.9-2.8-5.2-5.4-9-5.7-8.5-.9 1.4 3.5 11.2 9.6 22 11.8 20.7 17.1 38.9 13.7 47.7-.5 1.4-1.6 2.6-2.5 2.6-1.6 0-2.1-1.8-2.9-10.5-1.1-12-6.2-23.2-18.6-40.5-4.9-6.9-11.7-17.1-15.1-22.8-5.6-9.3-7.9-12.4-7.9-10.7 0 2.7 8.8 18.1 19.2 33.5 12.8 19 17.6 29 18.1 37.5.2 3.4-.1 4-1.9 4.3-3 .4-5.2-2.7-7.5-10.7-2.9-10.8-7.9-20.4-16.6-32.1-4.3-5.8-11-15-14.7-20.5-10.7-15.4-13.8-19.6-14.3-19.1-.9.9 13.8 24.1 26 41.1 12.1 16.7 14.5 22.6 11.4 27-1.3 1.7-1.7 1.3-4.8-3.9-1.9-3.2-6.5-10.4-10.4-16.2-25-37-38.5-54.9-38.5-50.8 0 .3 4.2 6.5 9.3 13.7 27.5 38.9 31.2 44.8 32.3 52.4 1 6.8-1.8 5.5-7.7-3.5-2.8-4.2-6.6-9.5-8.3-11.7-1.8-2.2-7-9.5-11.7-16.2C759.4 88 754.8 82 752.4 82c-2.4 0-1.6 1.9 4.4 10.3 10.2 14.5 12 17 20.3 29.2 4.5 6.6 9.2 13.2 10.4 14.6 2.8 3.4 6.9 14.4 6.1 16.4-.9 2.6-4 1.7-7.8-2.3-3.3-3.4-16.2-19.4-28.9-35.7-20.6-26.7-25.3-32.5-26-32.5-3.3 0 4.6 11.4 37.8 54.6 4.9 6.4 7 12.6 5.4 16.1-3.1 6.7-10.1.2-35.2-32.9-5.7-7.5-12.5-17-15.1-21-5-7.9-11.8-16.2-12.5-15.5-.6.6 14.4 25 21 34 2.8 4 8.4 11.4 12.3 16.4 4.3 5.5 7.8 11.2 8.7 14 5.4 16.9 2.4 16.5-13.3-1.8-14.4-16.8-26.8-33.3-36.3-48.4-3.8-6.1-7.6-11.6-8.3-12.4-1.7-1.8-2.8-.9-2 1.7 1.4 4.3 14.1 24.1 24.3 37.8 17 22.8 19.1 26.1 20.8 31.6 1.3 4.6 1.3 5.4 0 7.5-.9 1.3-2 2.3-2.4 2.3-5.3 0-31.8-36.5-51.5-70.7-2.6-4.6-5.2-8.6-5.7-8.9-2.5-1.5-1.8 1.1 2.4 8.9 8.5 15.6 19.7 33.9 32.7 53.2 1.5 2.2 4 6.8 5.5 10.2 5.3 12 .6 11.6-10.6-.9-20.1-22.4-30.7-38-42.1-62.2l-3.2-6.9 2.3-1.8c1.5-1.3 3.9-1.9 7-1.9 2.7 0 5.6-.7 7-1.7 1.4-1 4.8-1.7 8.5-1.8 3.3-.2 7.2-.7 8.6-1.3 1.4-.5 4.9-.8 7.9-.7 3.9.3 6.2-.2 8.5-1.6 3.5-2.1 5.3-2.3 11.5-.8zm-60 21.4c5.1 12.2 17.3 32.1 27.8 45.2 15.7 19.8 19.3 25.2 19.3 28.9 0 4-2.6 5.2-6.9 3-5.5-2.9-28.4-29.8-39.7-46.6-2.8-4.1-7.5-11.6-10.4-16.5-3-5-6.7-10.7-8.3-12.8-2.5-3.3-2.8-4-1.6-5.2 2.9-2.9 7.5-4.5 11.9-4.3l4.5.3 3.4 8zm-15.3 11.7c10.2 17.5 17.5 28.3 27.6 40.9 9 11.3 13.7 18.1 16.8 24.6 2.8 5.7 1.2 9.7-3.3 8.5-3.6-.9-37.8-35.9-44.8-45.7-7.2-10.2-20.3-35.1-19.3-36.6 1.4-2.4 7.1-4.9 11-4.9h4.2l7.8 13.2zm-23.8-3c1.2 4.8 10.8 22.9 16.8 31.8 3.5 5.3 11.6 15.4 18.1 22.5 12.3 13.7 19.8 23.2 20.8 26.6.9 2.8-2 6.9-5 6.9s-11.5-7-26.6-22c-16.8-16.7-30.8-36.9-38.6-55.4-3.7-9-3.5-9.7 4.2-11.5 7-1.6 9.6-1.3 10.3 1.1zm-18.3 10c5.1 15.8 21.1 39.7 40.5 60.5 13.9 14.9 17.6 20.4 15.9 23.5-2.8 5.2-6.7 3.1-25.4-13.5-22.3-19.9-27.3-25.9-43.1-52.9l-7.5-12.7 2.2-3.1c2.6-3.4 9.2-7 13.1-7 2.3 0 2.8.7 4.3 5.2zm-19.3 10.4c4 8.5 13.6 25.3 18.5 32.1 2.6 3.8 13.2 15.4 23.5 25.9 18 18.4 20.9 22.2 19.4 26-1.1 2.8-4.5 1-19.4-10.6-18.6-14.5-45.2-40.8-50.2-49.8-1.9-3.5-5-8.2-6.7-10.5-3.9-5-4.1-7-1-11.4 2.2-3.2 4.9-4.8 9.7-5.6 1.4-.2 2.8-.5 3.2-.6.5 0 1.8 2 3 4.5zm-95.6 1.1c6.2 5.3 6.8 8 2.9 11.9-2.8 2.8-3.4 2.7-11.7-.8-5.1-2.2-5.4-2.9-3.7-7.5.9-2.4 5.6-8.3 6.7-8.3.2 0 2.8 2.1 5.8 4.7zm77.1 13c1.6 2.7 4.1 6.8 5.5 9.3 6.5 11.2 26 31.8 44.4 46.6 9.5 7.7 15.4 13.2 17 15.9 2.5 4.4 2.4 7.5-.3 7.5-2.3 0-12.6-6.4-23.8-14.9-22.6-16.9-28.6-22.8-48.4-47.4l-10.3-12.8 3.7-4.4c5.1-6.3 8.1-6.2 12.2.2zm-85.3 4.2c3.8 4.5 4 5 3 7.5-.9 2.4-8.5 2.1-11.8-.5-3.3-2.6-3.5-7.5-.5-11.3 2.4-3.1 3.6-2.6 9.3 4.3zm70.1 6.4c5.9 8.5 21.4 26.4 29.6 34.2 4.6 4.4 14.5 12.8 21.8 18.5 7.4 5.8 15.9 12.8 18.9 15.7 4.6 4.5 5.3 5.7 5 8.5-.5 5.8-3.4 4.9-19.1-5.5-7.8-5.2-18.8-12.4-24.3-16-10.8-7-27-20.9-32.8-27.9-4.9-6.1-15.9-19.8-17.1-21.4-1.5-2.1 2.5-6.6 7.6-8.6 6.3-2.4 7.1-2.2 10.4 2.5zm-78.2 6.9c3.1 3.6 3.4 6.8 1.1 10.3-1.3 2-2.5 2.5-5.8 2.5-2.3 0-4.7-.5-5.4-1.2-2.5-2.5-.5-11.6 3.6-16.1 1.5-1.7 1.8-1.8 2.7-.2.5.9 2.2 3 3.8 4.7zm63.7 10.5c12.2 17 27.7 31.3 49.5 45.5 12.2 8 23.7 18.1 25.9 22.9 2 4.3-.8 4.1-11.5-.6-34.4-15.2-51.6-28.5-71.7-55.3-10-13.4-10.5-15.2-5.5-19.2 4.7-3.7 6.5-2.8 13.3 6.7zM526.8 181c5.8 9 17.9 23.5 25.2 30.2 8 7.3 22.5 16.6 38.9 24.9 10.5 5.3 18.1 11.2 18.1 13.8 0 1.9-3.4 4.3-5.4 3.8-5.9-1.4-31.2-11.3-39-15.2-11.3-5.8-17.4-9.9-26.8-17.9-7.7-6.6-19.5-20.4-22.8-26.6-1-1.9-3-4.8-4.5-6.3-2.5-2.4-2.6-2.9-1.5-5.6 1.5-3.7 4.6-6.6 8.5-7.8 3.7-1.3 4.7-.6 9.3 6.7zm350.6 3.1c-.5 7.6-2.1 10.6-8 15.8-6.9 6-23.6 11-26.3 7.7-1.1-1.3-.7-1.7 3.4-2.7 9.6-2.4 26.2-15.8 29.4-23.7.7-1.7 1.5-3.2 1.7-3.2.1 0 .1 2.7-.2 6.1zm-366.2 10.1c7.6 13.4 20.7 27.7 34.1 37.6 7.7 5.8 24.3 14.4 35.5 18.6 13.6 5 18.7 9.7 15 13.4-1.7 1.7-5.7 1.5-14.5-.9-36.7-9.7-63.2-25.2-77.4-45-2.4-3.4-5.9-7.9-7.6-9.9-3.8-4.4-4.2-8-1.3-12.7 1.9-3.2 8-7.2 11-7.3.9 0 3.2 2.8 5.2 6.2zm-15.6 17.4c13.6 19.4 18 24 31.6 33.2 8.1 5.6 25.9 14 38.6 18.3 13.4 4.5 17.5 7 17 10.2-.6 4.1-2.8 4.2-18.7.8-17.3-3.8-20.9-5-37.7-13-17.7-8.5-22.8-12.6-33.8-27.1-3.1-4.1-7.2-8.7-9.1-10.3-3.7-3-4.4-6.2-2.5-11.1.8-2.3 6.9-6.4 9.6-6.6.6 0 2.8 2.5 5 5.6zm-14 15.6c2.2 2.4 6.4 7.5 9.2 11.4 5.9 8.2 12.5 14.6 19.7 19.1 8.6 5.5 32.4 15.3 44.4 18.4 12.5 3.2 15.6 4.7 16.7 8.1.5 1.7 0 2.7-2 4.5-3.4 2.9-7.6 3-23.9.3-21.6-3.5-31.1-6.8-44.9-15.9-8.2-5.4-14.1-11.4-21.3-21.6-2.6-3.9-6.6-8.9-8.8-11.2-3.5-3.7-3.9-4.5-3.3-7.6.8-4.4 3.9-8.4 6.9-9 1.2-.2 2.4-.5 2.7-.6.3 0 2.4 1.8 4.6 4.1zm377.4-2.4c0 2.6-5.2 7.8-9.6 9.7-3 1.3-5.8 1.6-12.4 1.2-10.6-.7-14-1.9-14-5 0-3.9 1.5-4.5 7.8-3.1 3.1.8 7.1 1.3 8.7 1.3 1.9-.1.7-.6-3.4-1.5-3.6-.8-6.7-1.6-6.9-1.9-.3-.3 4.6-.6 10.9-.6 6.3-.1 12.8-.5 14.4-.9 4.5-1.1 4.5-1.1 4.5.8zm-33.3 12.8c3.7 1.1 8.3 1.5 14.3 1.2 10.2-.4 10.4.2 2.3 6.9-2.5 2.1-6.8 6-9.6 8.6-2.7 2.7-6.8 6-9.1 7.4-2.2 1.4-6 4.3-8.2 6.4-4.1 3.7-11.3 6.6-12.4 5.1-.3-.5-2.7-1.4-5.5-2.2-9.9-2.6-22.5-9.9-22.5-12.9 0-2.5 2.8-4.8 4.4-3.5 4.5 3.4 14.1 9.4 15 9.4.6 0-1.7-1.8-5.1-4-10.9-7-8.5-8 4.6-1.9 7.2 3.3 16.4 5.9 21.1 5.9 5.4 0 2.9-2.2-5-4.2-11.1-2.9-17-5.7-18.1-8.6-.7-1.9-.6-2.9.5-4 1.3-1.3 2.5-.9 10.4 3.2 11.5 5.9 13.2 6 2.7.1-8.3-4.6-8.7-5.2-2.6-3.5 17.2 4.6 30.1 6.4 30.1 4.1 0-1.1-3.5-2.1-7.5-2.1-4.4 0-16.6-3.6-17.6-5.2-1.4-2.2-1-5.8.6-5.8.8 0 4.8.9 8.7 2 4 1.1 8.2 2 9.3 1.9 1.1 0-1.5-1-5.7-2.2-4.2-1.2-8-2.5-8.4-3-1.3-1.3 7.7-.7 13.3.9zm-355.8 7c2.5 3.4 7.3 9.8 10.5 14.3 12.3 16.9 32.8 28.8 57.1 33.1 16.7 2.9 20.5 5.1 20.5 11.7 0 3.6-2.3 5.6-7.7 6.8-7.5 1.5-31.5-4-46.1-10.6-11.7-5.2-24.4-15.9-30.6-25.4-6.6-10.2-13.6-19.8-15.5-21.1-3.2-2.3-2.9-9.6.4-13 3.7-3.7 6.2-2.8 11.4 4.2zm272.9 4.3c2.1 3.5 2.3 4.7 1.4 6.2-2.2 3.4-1.2 5.2 6.5 12.3 10.2 9.5 13 11.4 5.5 3.7-3.4-3.5-6.2-6.7-6.2-7.2 0-1.9 2.1-.8 6.5 3.5 4.7 4.6 13.9 9.5 21.6 11.6 6.2 1.7 6.3 1.8 2.9 4.6-3.2 2.7-9.8 4.3-10.9 2.7-.3-.6-4-2.7-8.1-4.8-9.7-4.8-19.7-11.4-23.3-15.2-2-2.1-3.2-5.1-4.2-9.8-.8-3.7-2.3-8.1-3.4-9.9l-2-3.1 2.7-2.2 2.7-2.1 2.8 2.6c1.6 1.5 4 4.7 5.5 7.1zm-17.9-1.5c.7.8 2.5 4.4 4 8 6 14.3 16.4 24 32.7 30.5 3.9 1.5 4.5 2.1 3.1 2.6-1.2.5-5.3-.6-11.4-3-12.7-5-20.1-11.6-23.4-21-1.2-3.5-4-8.8-6.2-11.6-3-4-3.6-5.4-2.5-6 1.8-1.2 2.4-1.1 3.7.5zm-260.2 19.5c10.3 15.6 13.5 19.4 22.3 26.4 9.2 7.4 22.3 13.7 35.5 17.2 18.3 4.8 20.5 5.6 23.2 7.9 2.7 2.3 2.7 2.4.9 5-2.5 3.8-6 4.9-14 4.2-9.8-.9-19.1-3.2-30.5-7.5-21.1-8-32.2-16.6-43.5-33.9-3.6-5.5-8.3-11.5-10.6-13.5-4.4-4-5.2-8-2.8-13.3 1.5-3.3 8.6-6.7 10.6-5.1.7.6 4.7 6.2 8.9 12.6zm309.9-2.8c6.3 4.3 16.1 8.7 21.1 9.5 2.4.3 4.3 1 4.3 1.4 0 1.4-6.3 4.8-10.1 5.5-2.7.5-3.8.3-4.2-.8-.3-.8-3.1-2.5-6.2-3.6-7.8-2.9-13.3-5.8-17.9-9.4-3.6-2.8-3.7-3.1-2-4.4 2.4-1.8 2.6-1.7 7 1.8 2.2 1.7 5.3 3.7 6.9 4.5l3 1.4-2.9-2.2c-1.6-1.3-4.3-3.6-6-5.1l-3.1-2.9 2.9.7c1.6.3 4.9 2 7.2 3.6zm-328.9 10.1c1.7 1.8 6.5 8.5 10.6 14.9 4.8 7.3 9.9 13.7 13.7 17.2 7.3 6.6 22.4 14.4 43 22.3 15.2 5.8 19 8.3 19 12 0 10.3-29.4 7.8-47.5-4.1-7.6-4.9-22-19.4-35.3-35.3-5.6-6.7-11.3-12.7-12.5-13.3-2.2-1-2.2-1.4-1.6-7.6 1-9.8 4.9-12 10.6-6.1zm-8.1 18c2.2 2.4 8.1 9.5 13.1 15.8 20.6 26 39.2 39.3 59.8 42.5 6.2 1 13.2 3.5 14.6 5.1 1 1.2.8 1.9-1.1 3.8-3.8 4.1-7.1 4.9-18.7 4.4-16.5-.8-25.7-4.4-37.6-14.9-5.5-4.8-14.9-16.4-19.7-24.5-1.9-3.2-7.3-9.6-11.9-14.3l-8.3-8.5.5-5.4c.6-5.4 2-8.2 4.1-8.2.7 0 3 1.9 5.2 4.2zm339.3 13.9c5.2 2.8 11.9 6.7 15 8.6l5.5 3.6-3.9 3.3c-2.2 1.9-4.6 3.1-5.4 2.9-2.2-.9-11.7 2.3-14.8 4.9-2.3 2-3.9 2.3-9.3 2.3-7 0-11.9 1.8-17.8 6.8-2 1.7-4.2 2.5-6.8 2.5-5.1.1-12 3.2-16.5 7.6l-3.6 3.5-5.5-2.4c-6.7-3-16.8-6-17.5-5.3-1.5 1.5 1.2 3.7 6.1 5.1 6.3 1.8 7.8 3.3 5 4.8-1 .6-2.9 2.1-4.2 3.4-1.2 1.3-3 2.3-3.8 2.3-3.5 0-8.5 3.1-10.5 6.5-1.2 2-2.9 3.5-4 3.5-2.3 0-9.5 6.3-11.5 10.2-.8 1.5-2.9 3.4-4.7 4.2-1.8.7-5.1 3.3-7.2 5.8-2.3 2.6-5.6 5-7.6 5.7-3.4 1.1-12.3 9.4-15.9 14.9-1.4 2-1.8 2.1-5.3 1-3.3-1-4.1-.9-6.5.9-1.5 1.1-3.3 3.1-3.9 4.4-2 3.8-1.6 14.1.7 19.5 3.5 8.1 4.1 12.3 5 33.9.8 22.5 1.7 27.3 8 44.7 4.5 12.5 17.4 32.7 27.2 42.9 5 5.2 23.1 17 31.3 20.5 2 .8 8.2 2.4 13.8 3.5 7.3 1.4 13.5 3.5 21.7 7.3 6.3 3 13.5 6.1 16 7 2.5 1 8.3 3.9 13 6.5 17.3 9.9 29.9 14.2 48.5 16.8 15.9 2.2 26.1 1.2 35.8-3.5 10.1-4.9 20.3-4.1 22.7 1.8.7 1.6 3.4 5.1 6.1 7.9 4.8 5 4.9 5.2 4.7 10.8-.1 4.1-1 7.5-3 11.5-3.8 7.7-12.2 20.1-17.9 26.6-5.5 6-8.6 13.5-9.9 23.4-1.6 13.1 3 30.9 10.3 40 2.3 2.8 5.9 7.7 8 10.8l3.7 5.8-2.5 8c-2 6.2-3.6 9.2-7.3 13.3-13.5 15-37.8 22.3-62.9 18.8-5.4-.8-14.7-1.4-20.8-1.4-12.2 0-13.6.5-38.5 11.9-30.3 14-30.5 14-44.5 9.6-5.5-1.8-10.3-3.4-10.7-3.7-.4-.2-.2-1.4.6-2.6 2.4-3.9 3.8-9.7 3.2-13.2-.4-2.1-2.6-5.5-5.7-8.9l-5-5.5 3.3-.5c1.8-.3 5.7-.7 8.7-1 15-1.5 26.3-13.2 31-32.1 1.2-4.8 3.3-9.6 5.9-13.5 5-7.5 7.8-14.9 9.3-24.3 1.2-7.9.7-20.2-1.2-25.7-1.7-5.1-4.3-7.5-15.3-14.2-11.8-7.1-17.9-11.9-20.5-16.2-1.1-1.7-3.1-8.3-4.5-14.6-4.5-19.8-4.3-19.5-8.8-22-4.8-2.7-6.7-2-13.6 4.4-2.3 2.2-9 7-15 10.6-13.4 8.1-14.8 10.5-18.7 30-1.8 9.5-3.8 16-6.5 22-7 15.2-7.9 19.2-6.4 27 1.9 9.2 21.2 19 37.5 19 6.1 0 24.3-3.7 32.6-6.6 9.8-3.5 13.8-8.7 9-11.9-2.8-1.8-13.7-6.2-18.7-7.5-1.9-.5-7.1-2.2-11.5-3.9-10.9-4.1-5.4-4.1 7.5-.1 5.2 1.7 13.8 3.8 19 4.6 10.3 1.8 15.2 3.8 18.9 7.8 2.5 2.6 2.5 2.7.8 7.4-.9 2.6-3 10.1-4.6 16.7-4.6 18.5-7.2 23.7-14.2 28.1-6.8 4.3-13.5 5.2-41.9 5.8-32.3.7-50 2.5-65.6 6.7-11.6 3.2-12.5 3.3-32.9 3.3-17.7.1-22.9-.3-33-2.1-6.6-1.3-13.6-2.7-15.5-3.3-5.4-1.6-22-14.8-25.7-20.5-11.5-17.8-17.8-25.9-25-32-12.4-10.6-28.7-17.2-44.5-18.2-7.5-.5-8.8-.3-8.8 1 0 .9 1.3 1.7 3.5 2.1 2.1.4 3.5 1.3 3.5 2.1 0 2-4.3 4-14.1 6.5-17.4 4.3-36.1 12.8-37.4 17-1.5 4.9 2.5 5.2 13.3 1.1 10.7-4.1 38.2-11.8 38.2-10.7 0 .3-3.3 2.4-7.2 4.7-10.4 5.9-17.5 11.5-19.3 14.9-1.3 2.6-1.3 3 .1 4.4.8.9 2.4 1.6 3.4 1.6 1.1 0 8.4-3.3 16.2-7.4 16.6-8.5 18.8-9.4 18.8-7.2 0 2.7-6.2 8.7-16.8 16.2l-10.5 7.3-2.9-2.4c-3.5-2.9-8.8-4.1-11.7-2.6-3 1.7-2.6 3.1.9 3.1 4.2 0 8 2 8.6 4.7.8 3.1-.3 8.9-2.7 13.4-2.3 4.6-8.8 7.5-14.4 6.5-1.9-.4-3.5-.9-3.5-1.1 0-.3 1.2-4 2.6-8.2 4.2-12.6 2.4-23.2-4.9-28.7-2.2-1.6-4.3-2.1-9.2-2.1-5.6 0-6.7.4-10.3 3.2-2.3 1.8-4.5 3.3-4.9 3.3-.5 0-1.7-1.7-2.6-3.8-1.8-4.2-5-6.2-9.7-6.2-4 0-3.8 1.6.4 3.4 3.4 1.4 6.6 5.9 6.6 9 0 1.5 2.9 3.6 4.8 3.6.6 0 3.4-1.8 6.3-4 6.3-4.7 11.9-5.4 16.2-2 5.6 4.5 6.2 16.8 1.2 27.9-4.2 9.3-8.2 11.1-15.9 7.2-3.2-1.7-5.1-1.9-12.1-1.4-11.4.8-12.6.2-8.1-4.1 5.1-4.7 8.1-12.6 4.8-12.6-.4 0-2 2-3.6 4.5-3.7 5.9-5.6 6.9-14.6 7.2-12.3.4-18.8 1.4-20.2 3-.9 1.1-1.2 4.2-1 9.7.4 14.3-1.5 28.1-5.4 39.3-2 5.6-4.4 10.9-5.4 11.8-1.5 1.3-21 7-21.5 6.2-.1-.1-.7-2.3-1.3-4.8-.7-2.6-1.4-5.3-1.7-6.1-.5-1.2.4-1.7 3.9-2.2 5.7-.9 10.1-3.9 14.2-9.9 5.7-8.3 10.4-24.3 10.4-35.4 0-4.3.3-4.8 7.1-11.1 12.3-11.4 19.8-24.8 19.9-35.2 0-3-.6-6.6-1.3-8-1.4-2.9-7-6-10.9-6-4.2 0-3.4 2.4 1.4 4 2.6.9 4.8 2.5 5.6 4 4.7 8.9-8.4 32.1-24.2 42.8-10.2 6.9-12.9 6.9-16.8-.3-1.5-2.8-3.5-6.9-4.4-9.3l-1.7-4.3 3-2.7c5.1-4.6 9.3-10.9 13.4-20 3.8-8.6 3.9-8.7 8-9.4 4.6-.8 6.9-2.3 6.9-4.5 0-1.1-.6-1.4-2.2-.9-7.5 2.1-6.9 2.3-6.1-2.5 1.5-9.1 1-12.9-2-15.5-5.4-4.6-14.9-2.9-22.6 4.1-2.5 2.2-4.7 3.5-5.6 3.1-1.9-.7-1.9-5.1 0-10.6 2.8-8.1 1.6-14.3-3.5-17.3-4.3-2.6-8.6-2.1-15.6 1.8-8.7 4.9-10.2 4.1-8.2-4.4.7-3-2.3-2-3.9 1.3-2 4.3-.8 8 3.3 9.8 2.2 1.1 3.4.7 9.8-2.5 8.5-4.3 9.4-4.4 13-1.6 3.1 2.5 3.2 4.6.6 12.9-1.1 3.4-2 7.1-2 8.2 0 2.3 5.2 7.8 7.3 7.8.9 0 3.9-2 6.8-4.5 6.2-5.2 11.7-7.3 15.7-5.9 2.4.8 2.7 1.6 3 5.7.8 12-13.3 39.3-22.7 44.1-7 3.5-16.4 2.4-25.9-3.1l-4.4-2.5 2-2.1c2.4-2.6 8.7-13.3 10.8-18.3 1.4-3.4 1.4-3.5-.6-2.4-1.1.6-4.2 4.3-6.9 8.3-6.8 10.1-9.6 12.7-13.8 12.7-5.5 0-14.7-5.5-21.3-12.7l-5.8-6.4 5.6-7.3c3.1-4.1 8.2-10.5 11.3-14.2 9.5-11.6 14.4-22.2 6.1-13.2-5 5.5-15.5 17.6-19.9 23.1-6.3 7.7-8 8.9-10.6 7.5-6.9-3.5-14.7-13.2-14.7-18 0-7 12.3-22.6 26.5-33.8 4.9-3.9 15.1-9.6 18.5-10.3 3.8-.9 8.9 2.6 10.8 7.4 1.7 4.5 3.6 4.7 4 .3.6-6.7-7.3-13.1-15-12.1-3.4.5-3.9.3-3.2-1.1 1.5-3.6 1.5-7.1 0-9.9-1.5-3-6.8-6.3-10.1-6.3-1.2 0-1.5-.5-1-1.8 3.5-8.3-1.8-14.1-11.8-12.8l-4.9.7.6-2.8c1.5-6.1 5.6-13.1 10.8-18.4 5.8-6.1 11-9.1 22.7-13.3 23.4-8.4 37.7-19.7 52.1-41.2 3.6-5.5 5-6.9 5.4-5.6.9 3 1 11.5.2 17.9-1 7.6.1 8.1 4.5 2 8-11 11.5-22.3 9.9-32.1-1.3-8-3.2-11-14.7-22.7-5.7-5.9-11-12.4-11.9-14.4-1.4-3.5-1.4-3.9.7-7.8 2.5-4.8 12.9-18.3 18.6-24.2 3.3-3.4 5.5-4.6 13.4-6.9 19.7-5.9 31.6-13.2 45.8-28.2 13.7-14.5 20.1-23.7 28.2-40.9 5.8-12.4 10.9-20.3 16.6-25.8l3.9-3.7 4.1 3c3.8 2.8 10.7 5 35.3 11.2 3.5.9 6.4 2.9 13 9.3 4.7 4.5 10 9 11.8 9.9 1.7.9 3.2 2 3.2 2.4-.1 1.1-12.2 6.2-14.9 6.2-1.3 0-6.7-1.4-12-3.1-8-2.7-11.3-3.2-19.6-3.3-10-.1-10-.1-19.8 4.6-12.6 6.1-21.4 11.8-31.1 20.3-9 7.9-20.3 22-25.4 32-3.4 6.4-3.7 7.7-3.7 15.5 0 10.2 2.4 16.1 10.3 25.7 6.9 8.2 13.2 11.3 24.6 12 7.5.5 8.9.3 13.9-2 6.2-2.8 18.8-13.9 47.2-41.6 9.4-9.1 23.2-22.5 30.8-29.6 10.3-9.7 14.1-14 15.1-16.9 1.5-4.5.8-8.5-2.4-12.8-1.1-1.5-2-2.9-2-3.1 0-.2 2.8.2 6.3 1 13.1 3.1 34.6.1 50.7-7.2l7.7-3.5 4.9 2.2c4.1 1.9 6.6 2.3 15.9 2.3 6.1 0 12.4-.2 14-.5 2.8-.5 3-.2 3.3 2.6.3 3.1.2 3.1-6 4.4-5.4 1-6.9 1.8-10.3 5.5-2.2 2.3-6 5.4-8.5 6.9-4 2.3-16.1 12.5-13.5 11.3 6.2-2.8 21.7-12.6 24-15.3 3.2-3.6 7-5.4 11.5-5.4 4.3 0 6-2.3 6-8.3 0-5.1.1-5.2 4.8-7.9 2.6-1.6 5.4-3.3 6.3-3.9 1.3-1 2.4-.7 5.5 1.5 4.3 2.9 8.9 3.4 9.8 1 .3-.9.6-2.9.6-4.4 0-4.2 3.3-6.7 12.5-9.6 14.3-4.4 20.9-7.3 28.5-12.4 4.1-2.7 8.5-5 9.8-5 2.2 0 5.9-3.2 9-7.8 2.2-3.4 5.7-4.9 15.8-6.7 4.9-.9 9.5-2.2 10.2-2.8.8-.6 2.7-3.8 4.4-7.1 4-8 9.6-15.6 11.4-15.6 2.3 0 7.4-2.8 12.7-7.1 4.1-3.2 5.8-3.9 11.5-4.4 6.7-.7 22.5-5.3 27.2-7.9 3-1.7 4.5-1.2 18.9 6.5zm-347.3.1c4.1 3.6 12.8 14.7 17.2 22.1 5.9 9.7 15.4 21 22 26 12.6 9.7 30.1 17.7 38.6 17.7 1.8 0 4.1.6 5.1 1.4 1.7 1.2 1.8 1.7.7 4-1.3 3-5.4 5-13.2 6.7-7.6 1.6-16.6-.3-27.3-5.8-7-3.6-10-6-15.2-11.7-7-7.8-16.1-20.1-21.1-28.6-1.8-3-5.2-7.5-7.6-10-4.8-5-7.6-10.2-8.5-15.5-.4-2.7 0-3.9 2-5.9 3.2-3.2 4-3.2 7.3-.4zM895 318c5.1 2 5.1 2 11 0 3.3-1.1 7-2 8.2-2 2.6 0 10.9 3.6 11.8 5 .3.5 2.6.3 5.4-.5 7.2-2.2 11.6-1.9 17.8 1.3 4.7 2.3 6.1 2.6 9.9 1.9 7.3-1.3 19.9 1.8 19.9 4.9 0 1.5.2 1.6 7.5 1.9 6 .2 14.5 3.7 14.5 5.9 0 .9.3 1.6.8 1.7.4 0 3.9.1 7.8.2 6 .2 7.7.6 11.5 3.2 2.4 1.6 5.4 2.8 6.6 2.6 2.6-.3 5.4 1.1 10.4 5 2.1 1.7 4.9 2.9 6.5 2.9 1.8 0 4.6 1.3 7.1 3.4 3 2.4 5 3.2 6.7 2.9 3.6-.7 8.8 2.8 13.3 9 3.7 5.1 3.8 5.1 4.1 2.4.2-1.5.8-2.7 1.3-2.7 3.4 0 9.6 4.3 17.6 12.3 8.5 8.4 9.2 8.9 8.3 5.7-.5-1.8-.9-3.5-.7-3.6 1-1 9 4.1 11.3 7.2 4.6 5.9 7.7 8.6 8.4 7.3 1.9-2.9 12.4 7 19.8 18.5 3.1 4.8 4.2 3 1.8-2.8-4.3-10.4 8.2 4 14 16.1 2.5 5.1 4.7 9.3 5.1 9.3.3 0 .3-1.6 0-3.6-.9-5.6 1.5-2.7 7.4 8.7 2.8 5.4 5.6 9.7 6.2 9.6.6-.1 3.5 5.9 6.4 13.3 2.9 7.6 5.3 12.4 5.3 11l.1-2.5 1.5 2.8c.8 1.6 2.2 6.5 3.1 11 .8 4.5 2.6 10.3 3.9 12.9 2.5 4.9 4.3 14.7 4.4 23.3 0 2.7.7 7.2 1.6 10 1.5 4.7 1.7 12.2 1.2 36.5-.1 2.5.2 8.1.7 12.6.9 9.2 0 12.2-2.8 10.1-1.7-1.1-1.7-1.5-.2-4.9.8-2.1 1.5-5.9 1.4-8.5 0-5.1-.2-4.9-3.3 3.7-2 5.6-3.3 7.6-4.2 6.8-.3-.4.1-2.6 1.1-5 2.7-6.8 4.6-19.2 5-33.8.6-15.4-.5-14.3-2.9 3-2.9 20.6-6.2 32-9.1 32-.7 0-2.2-.8-3.4-1.8l-2.1-1.7 4.5-8.8c2.7-5.4 4.5-10.2 4.5-12.3 0-1.9.5-3.4 1.1-3.4.7 0 .9-1.5.5-4.3s-.3-3.5.3-2.2c.6 1.5 1-.2 1.5-6 .4-4.4.9-9.1 1.2-10.5.3-1.4.2-2.1-.2-1.7-.5.5-1.1 3.2-1.5 6-.3 2.9-.3-3.5-.1-14.1.3-11.6.1-19.2-.4-19.2-.6 0-1.6 6.9-2.3 15.2-.7 8.4-1.7 19.7-2.1 25.1-1.2 14-2.7 20-6 24.6-4.1 5.5-6.2 6.6-9.1 4.2l-2.3-1.8 4.6-7.4c4.9-7.9 5.6-10.6 8.4-30.4 2-14.3 2.9-40.9 1.6-45.5-1.4-5.2-1.9-2.6-3.1 19-1.2 22.4-5 46-7.9 50-1 1.4-3.6 3.5-5.8 4.7-3.6 2.1-4 2.1-5.1.6-1.9-2.4-1.6-3.9 1.3-8.2 3.4-5.1 5-11 7.5-26 2.4-15.2 2.9-59.8.8-67.2-1.2-3.9-1.4-1.3-2 24.6-.8 29.4-1.7 40.1-4.9 53.1-2.9 11.7-7.1 16.8-10.8 13.1-1.4-1.4-1.3-2.2.7-8.3 2-6.2 2.3-9.8 3.2-46.3 1.2-43.3 1-57.4-.9-59.3-.9-.9-1.2.7-1.2 7.2 0 4.7-.4 16.4-1 26-.5 9.6-1.4 28-2 40.7-1 25.1-1.7 28.3-6.7 30.6-2.3 1-2.8.8-5-1.7-2.7-3.1-2.7-3.1-.3-17.1 1.3-8.1.8-23-2-57-1.3-15.6-1.8-26.7-1.3-34.6.9-18-.9-17.8-3.1.4-1.5 13.1-1.6 17.3-.7 30.7.6 8.5 1.6 23.8 2.1 34 1.1 22.9.3 27.4-5.5 31-4.3 2.7-6.7 2.5-9.5-.5l-2.4-2.5 1.9-5.2c1.6-4.5 1.7-7 1.2-21.7-.4-9.1-1.1-18.8-1.7-21.5-1.8-8.9-3.4-37.6-3.2-57.9.1-10.9-.2-19.7-.7-19.7-1.2 0-1.8 2.9-3.2 15.7-1.3 12.4-.1 41.5 2.6 63.8 1.7 13.6 2 32.2.6 35.8-1.3 3.3-5 6.7-7.3 6.7-1.1 0-2.9-1.1-4.2-2.3-2.3-2.3-2.4-2.7-1.9-17.3.5-13 .1-18.2-2.8-40.9-3.1-23.7-3.4-28-3.2-48.3.2-16.2-.1-23-1-24.5-1.1-2-1.2-1.6-1.8 3.8-1.9 17.8-2.1 37.3-.5 51.5 5 43.4 5.7 56.4 3.5 61.4-1.9 4-6.4 5-11.5 2.6-4.8-2.4-5.7-4.2-7.3-14.5-1.6-10.4-2-17.1-2.6-38-.3-10.5-1.2-26.2-2-35-.9-8.8-1.9-23.4-2.3-32.5-.7-16.6-1.9-20.6-3.5-12-.9 5-.1 36.5 1.3 48 .5 4.1.9 13.8.9 21.5.1 7.7.6 21.7 1.2 31.2 1.1 16.3 1.1 17.3-.8 20.5-2.2 3.8-5.2 4.7-7.5 2.1-2.7-3.2-5-34.6-5.4-73.5-.2-25.4-.7-37-1.8-43-.8-4.6-1.8-11.3-2.2-15.1-.3-3.7-1-6.7-1.4-6.7-1.8 0-2 4.2-.8 15.1.8 6.7 1.2 20.1 1 32.4-.3 24.4 1.2 64.5 2.8 75.9 1.1 7.4 1 8-.8 9.9-3.5 3.5-4.8 1.7-5.5-7.5-.4-4.5-1.4-14.4-2.3-21.8-1.2-9.3-1.8-23.9-2-47-.2-18.4-.8-35.5-1.3-38s-1.5-8.6-2.1-13.5c-1.4-10.9-1.6-11.5-3.1-11.5-1.4 0-.5 18.5 1.2 26 .7 2.7 1.1 16.1 1 33-.1 25.9.7 40.6 3.5 66.7.6 5.7.5 6.3-2 8.8-2 2-3 2.4-4.5 1.6-2.3-1.3-3.4-4.2-6-15.6-4.2-18.6-5.5-33.5-5.3-59.8.1-21-.2-26.3-1.8-34.1-1-5.1-2.4-15-3-22.2-.7-7.1-1.6-13.3-2-13.8-3-3.1-2.3 21.1 1.1 38.8 1.9 10 2 12.2 1 22.2-.6 6-1.1 14.7-1.1 19.2 0 11.3 2.7 35.6 5.1 46.9 2.1 9.9 1.9 12.7-1.2 14.3-3.5 1.9-7.3-1.2-9.8-7.7-6.6-18.2-11.8-51.3-10.6-68.8.6-9.6.4-10.8-3.1-24-3.5-13.1-3.8-15-3.8-28.8-.1-9.3-.5-14.6-1.1-14.4-2.1.7-3.4 7.6-3.4 17.9-.1 9.4.4 12.8 3.8 26 3.3 12.9 3.8 16 3.1 19.8-2.2 11 .2 35.2 5.6 56.9 2 8.2 3.3 15.4 2.9 16.8-.7 3.1-4 4.3-8.4 3.1-6.8-1.9-7.8-3.2-12-16.1-2.1-6.7-4.4-14.5-5-17.2-2.7-12.1-5.3-33.2-6.1-48-.5-8.8-1.6-20.7-2.5-26.5-1.6-10.3-1.6-26.3.1-37.8.8-5.1-1-5.8-2.5-1-3.6 11.5-4.1 30.5-1.2 47.3 1.3 7.5 1.7 13.7 1.3 19.3-.8 13.9 4.1 45.4 9.4 61 3.6 10.3 3.9 14.4 1.1 15.5-2.5 1-3.7-.9-8.6-12.9-11.3-27.9-13.9-38.5-15-61.9-.7-13-1.4-18.3-2.9-22.8-1.2-3.2-3.5-12.2-5.2-20-2.8-12.4-3.1-15.6-2.8-25.5.2-6.1.1-11.2-.2-11.2-1.7 0-3.4 6.3-3.8 14.6-.5 10.2 1.8 24.5 7 42.8 2.7 9.8 3 11.9 2.4 19.5-1.2 15.7 2.9 34.9 12.4 58.1 5.6 13.8 5.3 12.8 5.1 15.2-.1 2.1-3.4 2.4-4.8.5-.5-.6-1.6-2.8-2.3-4.7-.8-1.9-4.1-8-7.4-13.5-6.9-11.7-16.6-31.6-19.5-40.3-3-8.9-5.1-23.3-5.1-35.2 0-8.9-.6-12.8-3.7-25-3.2-12.3-3.7-16.1-3.7-24.8.1-10.3-.5-12-2.7-8-2.4 4.5-1.5 20.3 1.9 34.4 2.6 10.8 3.2 15.2 3.2 24.4 0 13.5 2.3 28.9 5.7 38.5 3.5 9.5 11 24.4 19.3 38 7.2 11.8 7.8 13.3 5.8 15.3-1.7 1.7-5.8 1.5-5.8-.2 0-2.3-6.8-14.5-12-21.8-6.2-8.6-15.9-24.7-21.4-35.7-6.7-13.3-8.8-20.8-9.6-35.1-.7-11.9-1-13-5.5-24-4.7-11.3-4.8-11.7-5.3-24.3-.3-9.4-.8-12.7-1.7-12.7-2 0-3.8 13-3 21.5.5 5.3 1.9 10.2 5.2 18.1 4.4 10.3 4.6 11.5 4.9 21.4.4 17.1 5.3 30.6 19.8 55.4 3.2 5.4 7.8 12.2 10.1 15.1 2.4 2.9 5.9 7.7 7.9 10.7 3.2 4.7 3.5 5.9 2.7 8.1-1.7 4.4-10.1 4.8-12.1.7-3.6-7.6-5.1-9.9-9.3-14.4-10.2-10.6-20-24.1-24.7-34.1-5.6-11.8-6.9-16.5-8.1-30-.7-8.6-1.3-10.9-4.4-16.5-10.7-19.7-12.9-26.5-14.1-44.3-.4-6.4-.9-8.7-1.9-8.7-2 0-2.9 6-2.2 16 .9 14.4 3.8 23.2 12.5 37.2 3.1 5.1 3.6 7.1 4.8 17.1 1.8 16 2.9 19.7 9 32.2 5.4 11.1 14.5 23.4 26.2 35.4 3.8 3.9 5.2 6.1 5.2 8.2 0 5.8-7.8 6.2-10.7.6-.8-1.7-6-7.4-11.4-12.6-12.8-12.5-23.9-26.5-29.3-37.1-5.8-11.2-7.3-16.1-9.1-28.6-1.3-9.1-2-11.3-5.5-17.2-10.3-16.9-12.7-25.8-11.7-43 .3-4.5.1-8.5-.4-8.8-.5-.3-1.7 1.2-2.5 3.3-1.3 3-1.5 6.5-1.2 16.8.3 13 .4 13.1 4.6 21.5 2.3 4.7 5.8 11.4 7.7 14.8 2.7 4.9 3.5 7.5 3.5 11.3 0 20.8 16.1 49.2 40.5 71.2 7.7 7 8.8 9.3 5.8 12.2-3.4 3.4-6.4 1.3-27-19.2-28.5-28.2-34.3-36.6-38.9-56.1-3.3-14.3-2.9-13.2-8.2-20.4-2.6-3.5-6.7-10.7-9.2-15.9l-4.5-9.4-.3-14.3c-.3-7.8-.8-14.2-1.3-14.2-2.1 0-3.1 6.1-3.1 17.6 0 11.3.2 12.6 3.2 19.7 2.9 6.9 6 12.1 13.4 22.7 1.7 2.4 3.3 7.4 5 15.4 1.4 6.6 3.7 14.3 5.2 17.2 6.2 12.2 21.2 29.5 42.3 48.6 8.2 7.4 8.4 7.7 6.9 10-.8 1.3-3.2 2.9-5.3 3.6-5.2 1.7-9.6.2-12.7-4.4-1.2-1.9-9.7-9.7-18.8-17.3-22.5-18.8-29.7-26.7-36.1-39.5-4-8.1-5.1-11.6-5.8-17.6-.9-8.5-3.2-13.7-9.6-22-8.8-11.4-13-23.9-12.3-36.5.7-11-1.2-14.5-3.3-5.8-3.3 14.2 1 31.3 11.1 44.8 6.1 8.2 8.2 13.3 9.1 21.7.6 6.1 1.7 9.8 5.2 17 7 14.8 15.5 24 41.5 45.3 6.8 5.5 12.5 10.9 12.8 12.1 1.5 6-1.8 10-6.1 7.4-11.5-7.1-30.3-20.9-43.3-32-10.5-8.9-22.5-27.5-25.7-39.9-.9-3.6-2.9-8.3-4.4-10.5-10.5-15.4-17.1-30.7-19.1-44.5-1.4-9.9-.6-20.1 1.6-20.1.8 0 3.7-1.6 6.5-3.5 5.5-3.8 5.4-3.7 11.5-4 3.2-.1 5.3-1.1 8.7-3.9 7-5.7 19.8-7.4 24.1-3.1 1.9 2 2.9 1.9 5-.4.9-1 3.5-2.6 5.7-3.6 3.7-1.7 4.5-1.7 12-.3 7.7 1.5 8.2 1.5 9.9-.2 3.1-3.1 8.6-3.6 15.1-1.2 3.9 1.4 6.1 1.7 6.5 1 1-1.6 8.6-4.8 11.6-4.8 1.5 0 5 .9 7.8 2zm-197 2.1c0 .6-1.1 2.5-2.5 4.3-1.3 1.7-3.6 5.7-4.9 8.7l-2.6 5.5-9 1.7c-11.4 2.1-14.1 3.5-18.7 9.7-2.1 2.8-4.5 5-5.4 5-.9 0-5.9 2.9-11.2 6.4-7.7 5.2-11.8 7.1-21.4 10.1-17.9 5.7-21.8 8.4-20.6 14.8.3 1.5.2 2.7-.2 2.7-1.3 0-7.5-4.1-7.5-5 0-1.4 17.3-15.9 21-17.6 1.9-.9 6.7-4 10.5-6.8 3.9-2.9 8.6-6.3 10.5-7.6 1.9-1.3 5.8-4.5 8.7-7.2 5.4-5 22.3-13.8 35.5-18.3 3.7-1.3 8.4-3.5 10.5-4.9 3.9-2.7 7.3-3.4 7.3-1.5zm67.4 22.1c-1.5 5.6-.9 23.7 1 30.2 2.4 8.2 8.3 20.6 14.6 30.6 3.6 5.9 5.7 10.5 6.6 14.9 2 9.6 11.3 25.7 20.4 35.5 5.9 6.3 22.9 19.6 35.6 27.9 5.6 3.6 10.4 6.9 10.7 7.4 1.2 1.9-.6 5.4-3.5 6.9-4 2.1-6.7.9-14.9-6.7-4.4-4.1-9.6-7.6-16.7-11.1-23.4-11.6-37.1-24.7-46.7-44.2-2.6-5.2-4.8-11.5-5.3-14.7-.6-3.9-2-7.4-4.6-11.3-5.8-8.7-12.2-23.4-13.5-31.1-.7-3.9-1.7-8.9-2.2-11.2-.5-2.3-.9-6.9-.9-10.3 0-5.6.3-6.4 3.3-9.1 4.5-4.2 9.6-6.8 13.6-6.9 3.3 0 3.3 0 2.5 3.2zm-20.9 7.5c-1.6 3.6-2.2 12-1.4 17.3 2.4 16.2 3.2 19.4 6.1 25.7 1.7 3.7 5.2 10.2 7.6 14.3 3.3 5.5 4.9 9.5 5.8 14.7 4.1 23 24.7 46.7 52.1 60.1 13.1 6.4 18.7 11.1 26.2 22.2 8.3 12.2 23.3 31 31.7 39.5 7.8 8 20.3 16.9 22.9 16.3 1.3-.2-.8-2.5-7.5-8.3-9.1-7.9-18.1-17.8-29.4-32.4-5.7-7.4-5.7-7.4-3.7-9.4 1.2-1.2 3.2-2 5.1-1.9 5.6.1 10.5 4.7 17.1 15.6 7 11.5 13.8 20.4 20.2 26.3 10.1 9.3 16.1 9.1 6.6-.2-3.3-3.3-8-8.5-10.4-11.6-6-7.6-18.7-28.8-18-30 1.2-1.9 4.5-.8 6.8 2.3 1.3 1.8 4.8 7.3 7.7 12.3 8.4 14.4 12.9 20.5 20.4 27.7l7.1 6.7-3.6.1c-2.1 0-4.7.9-6.2 2-1.5 1.2-4 2-6.4 2-3.1 0-4.6.7-6.8 3-1.7 1.8-3.9 3-5.4 3-1.4 0-4.5.9-6.9 2-5.4 2.5-10.7 2.7-15.4.7-4.8-2-18.8-10.9-26.1-16.5-8-6.3-25-25.2-29.7-33.1-7.6-12.7-9.1-13.8-28.2-19.6-9.1-2.8-27.6-12.8-35.8-19.3-7.2-5.7-12.8-12.2-17.5-20.2-6.4-10.9-7.7-16.9-7-31.5l.7-12-5.6-11.2c-5.3-10.7-11.6-27.5-11.6-31.2 0-.9-.5-2.2-1-2.7-.7-.7.1-2.5 2.5-5.7 4.4-5.7 6.5-6.9 11.7-6.6 3.6.3 4.3-.1 8.1-4.4 4.3-4.9 9.6-7.6 15.1-7.7 2.3 0 2.7.3 2.1 1.7zm-42.1 25.5c.9 9.2 5.1 21.8 11.3 34.1l5.4 10.9-.9 9.3c-1.6 16.2.7 25.1 10.4 39.6 10 15 34 30.8 56.9 37.5 12.9 3.7 13.8 4.4 19.7 14 9.2 15.1 25.5 31.6 41.4 41.9 10.7 7 17.7 10.5 21.1 10.5l2.8.1-2.8 2.4c-1.5 1.4-3.6 2.6-4.5 2.6-4.8.4-6.2.8-10.6 3.4-4.5 2.6-5.2 2.8-13.4 2.2-10.1-.7-17.5-3.1-28.1-8.8-19.2-10.5-30.8-20.3-45.8-39.1-6.1-7.7-8.5-9.1-18.9-10.9-13.8-2.4-27.8-8.9-37.6-17.6-9.8-8.7-14.2-14.5-20.3-26.8-7.2-14.5-8.7-22.8-6-34.3l1.8-7.9-2.7-6.7c-3.2-8-4.8-20.3-4.1-30.6.6-7.9-.5-12-2.5-9-1.1 1.7-1.5 7.9-1.1 20.5.2 6.8 1 11.2 3.2 18l3 8.9-1.7 6.3c-3.3 12.2-.3 27.2 8.7 42.8 5.9 10.2 9.4 14.6 18.8 22.8 10.2 9 20.8 13.9 39.1 17.8 5.2 1.2 10.1 2.4 10.8 2.8.7.4 3.9 4.2 7.1 8.5 7.6 10.2 20.7 23.5 27.5 28 8.4 5.6 27.5 15.3 33.5 17 3 .9 7.3 1.6 9.5 1.6 2.5 0 3.6.4 3.1.9-1.2 1.2-16.3 3.5-22 3.4-10.7-.1-40.4-17.2-58-33.5-12.9-11.9-18.4-15.3-28-17.3-15.6-3.4-20.7-6.5-36-22.1-9.9-10.1-16.6-20.3-22.3-34.2-4.4-11-5-18.3-2.7-32.3 2.2-12.5 2.2-10.7-.4-20.4-1.1-4.4-2.5-13.2-2.9-19.5l-.8-11.4 3.1-4c2-2.6 4.6-4.6 7.3-5.6 2.9-1.1 5-2.7 6.3-5.1 3.2-5.3 6-7.9 8.5-7.9 1.5 0 3.3-1.3 5.1-3.8 3.3-4.4 4.3-5.2 6.4-5.2 1.2 0 1.8 1.4 2.3 6.2zm-42.7 30c-1 3.7 1.2 23.2 3.3 29.4 2 5.7 2 6.1.4 15.2-2.4 13.5-1.6 25.4 2.4 35.7 7 17.8 19.9 34.9 35.8 47.5 9 7.1 13.5 9.3 25.1 12 8.3 1.9 9.9 2.7 16.5 8 4 3.1 9.1 7.6 11.3 10 9 9.3 30.1 22.8 44.3 28.2 6.5 2.4 8 3.3 6.6 3.9-2.7 1.1-8.4 1.1-12.2 0-3.6-1.1-23.7-12.2-42.7-23.6-17-10.3-15.9-9.8-27.1-10.1-20.4-.3-36.2-9-50.2-27.6-5.7-7.4-18.5-34.4-21.7-45.3-2.4-8.2-2.5-10.3-2.4-26 .2-13.1-.2-18.7-1.5-24.5-2-8.7-1.4-21.9 1.1-26 4.1-6.6 6.5-9 9-9 2.1 0 2.4.4 2 2.2zm-265.1 26.2c-2.6 2.9-4.7 9.1-3.8 11.4.3 1 1.8 3.8 3.4 6.3 1.6 2.7 2.8 6 2.8 8 0 4.6-7.4 22.8-10 24.4-1.3.8-8-2.8-10.6-5.7-1.2-1.2-3.1-4.2-4.3-6.5-3.5-7-8.8-9.1-15-5.9-3.5 1.9-6.6 7.5-5.8 10.7 1.3 5 6.8 10 16 14.5 5 2.4 9.7 4.4 10.4 4.4.8 0 2.8.7 4.5 1.6l3.2 1.7-2.3 1.8c-4.9 4-12.6 4.8-21.1 2.3-5.9-1.7-13.6-8.7-16.9-15.3-6.1-11.9-1.8-26.3 11.9-40.1 10.8-10.7 21.6-15.9 33.2-16h6.7l-2.3 2.4zm30.8 12.6c.9 2.2 1.6 6.1 1.6 8.6 0 3.8-.6 5.1-3.8 8.6-4.5 4.8-6.2 4.4-6.2-1.5 0-5.8 4.3-19.7 6-19.7.4 0 1.5 1.8 2.4 4zm476 65.2c3.2 3.2 5.2 6.5 7.6 12.8 4.7 12 11.5 25.3 15 29.3 3.2 3.7 3 4.7-.8 4.7-1.5 0-3.4-1.2-5-3.2-1.5-1.7-4.6-5.2-6.8-7.7-7.1-7.9-23.9-36.3-23-38.8.3-.8 2.2-1.3 4.6-1.3 3.5 0 4.8.6 8.4 4.2zm16.5.4c1.1 1.4 2.7 5.1 3.6 8.2 3.9 13.8 9.1 24.5 15.2 31.3 2.9 3.2 3.3 4.2 2.3 5.4-1.9 2.3-5.8 1.8-8.5-1.1-5.9-6.4-21.4-42.6-19.3-45.1 1.7-2.1 4.5-1.5 6.7 1.3zm12.4.6c1 .8 3.1 6.6 5.3 14.3 1.9 7.1 5.3 16.7 7.5 21.4 2.1 4.6 3.7 8.6 3.5 8.8-.8.8-11.9-15.3-14.3-20.6-2.9-6.4-7.5-23-6.7-24.2.7-1.3 2.7-1.1 4.7.3zm18.4 3c.8.9 2.2 6.8 3.4 14.9 1.1 7.4 2.8 16.5 3.8 20.4 2.1 7.5 2 8.5-.9 8.5-3.5 0-10.3-14.9-14.5-32-3.6-14.2-3.5-14.4 2.1-13.7 2.5.2 5.3 1.1 6.1 1.9zm13.2 14.5c.7 6 2.1 14.4 3.2 18.7 1.9 8 1.6 10.5-1.4 9.3-2.1-.8-8.7-35.2-7.2-37.7.3-.5 1.4-1 2.4-1 1.5 0 1.9 1.6 3 10.7zm10.8-4.9c.5.9.8 8.2.8 16.2 0 12.2-.2 14.5-1.5 14.5-1.7 0-3.2-6.7-5-22.4-.8-6.9-.7-9.7.1-10.7 1.3-1.6 4.4-.3 5.6 2.4zm12 5.2c.9 1.7 1.1 5.9.8 13.4-.3 6.1-.5 11.4-.5 11.8 0 1.4-3.3.9-5.2-.9-1.5-1.4-1.8-3.2-1.8-11.9 0-5.6.5-11.5 1-12.9 1.2-3.3 3.9-3 5.7.5zm11.7 6c2 2.2 3.6 4.8 3.7 5.8.7 12.2.3 16.2-1.4 16.8-1.7.5-8.3-2.8-8.9-4.6-.6-1.8 1.5-22 2.2-22 .4 0 2.4 1.8 4.4 4zm90 35.1c31.3 5 81.7 19.6 103.8 30.2 12.7 6 20.9 12.5 25.4 20.3 1.9 3.3 2.2 4.7 1.5 6.6-2 5.4-8.5 5.2-36.8-1.1-21.8-4.9-51-6.3-74.8-3.6-14.6 1.6-36.7 6.8-49.5 11.6-4.7 1.7-12 3.7-16.4 4.5-6.1 1.1-8.6 2.1-11.2 4.4-1.9 1.6-5.1 3.4-7.2 3.9-2.1.6-4.9 2.2-6.2 3.6-1.6 1.7-3.4 2.5-5.5 2.5-2.9 0-3.8-.9-10-9.8-9.8-14-11.7-17.9-18-35.7-7.7-22.2-7.6-21.5-6.4-23.6 1.4-2.8 6.3-4.9 10.3-4.7 3.3.3 3.6.6 4.2 4.3 2.1 12.7 17.6 47.7 25.6 57.8 5.3 6.7 4.3 2.5-2.5-10-11.5-21.1-20.1-43.8-19.5-51.1.3-3 .9-3.8 5-5.9 3.8-2 5.5-2.3 9.1-1.8l4.5.7.6 5c.9 6.7 7.6 26.9 11.4 34.3 3.7 7.3 9.4 15.3 9.9 13.9.2-.6-1.9-5.9-4.7-11.8-5.6-11.9-12.3-31.5-13.4-38.8-1.1-7.5-.3-7.7 31.3-7.8 22.1 0 28.6.3 39.5 2.1zM973.6 591c1.8 7.4 9.8 29.8 13 36.3 2.6 5.2 6.1 10.3 13.8 20.6l4 5.3-2.4 2c-3.1 2.5-7.2 1.8-11.8-2-5.2-4.2-17.4-27-22.8-42.7-4.7-13.5-7.3-18.9-7.4-15.3 0 4 9.3 29.6 13.4 36.7 2.4 4.2 5.7 10.3 7.4 13.7 2.8 5.6 8.2 11.6 11.3 12.6 1.6.5-2.1 5.6-5.4 7.5-6.1 3.4-13.4-1.5-22.4-15-5.4-8.1-14.3-25.9-16.7-33.4-1.8-5.4-5.6-10.3-4.2-5.3.3 1.4 1.4 5.2 2.2 8.5 2.1 7.9 13.7 30.2 19.4 37.3 2.5 3.1 6.4 7 8.7 8.7 2.3 1.6 4.2 3.3 4.2 3.8.1.4-1.4 2.3-3.1 4.2l-3.3 3.5-4-1.9c-4.5-2.1-11.3-10.6-18.9-23.8-2.6-4.5-7.2-10.9-10.1-14.3-3-3.3-6.1-7.3-6.9-8.8-1.6-3.1-5.6-15-5.6-16.6 0-2.2 7-8.4 10.1-9 1.8-.3 5.4-2.6 8-5.1 4.1-3.8 5.4-4.5 9-4.5 3.4 0 4.7-.6 7.3-3.4 3.4-3.8 7-5.6 10-5.3 1.5.2 2.3 1.5 3.2 5.7zm-49.7 27.7c1.6 8.3 5 15 10.8 21.3 2.8 3 7.9 10 11.3 15.5 7.5 12 14.1 20 18.2 22.1l3 1.6-2.1 2.2c-1.2 1.2-2.1 2.7-2.1 3.4 0 1.6-4.1 4.2-6.6 4.2-3.2 0-7.3-5.2-13.2-16.6-4.1-8.1-6.9-11.8-14.7-19.9-9.5-9.9-13.9-16.6-16.5-25.1-1-3.5-1-4.6.4-7.3 1.6-3 6.8-7.1 9.2-7.1.6 0 1.7 2.6 2.3 5.7zm-14.5 14.1c2.2 6.6 7 13.3 16.9 23.4 6.7 6.8 9.6 10.8 13.8 18.8 3.4 6.6 6.8 11.5 9.5 13.9 4 3.5 4 3.7 2.7 6.8-2.3 5.8-10.6 8.8-14.8 5.3-4.3-3.5-5.5-8.4-5.5-21.7 0-14.4-.8-16.8-7.4-21.8-3.2-2.4-4.9-2.9-13.4-3.5-10.8-.8-14.6-2-16.1-4.9-1.7-3.1-1.3-10.3.8-13.7 1.6-2.6 2.4-3 4.9-2.6 2.4.3 3.4-.1 4.7-2.2 1-1.4 1.9-2.6 2-2.6.2 0 1.1 2.1 1.9 4.8zM198 636.5c3.4 1.8 3.5 2.1 1.8 7.5-.9 2.8-2 4.1-3.7 4.5-7.2 1.8-26.8 19.4-32.1 28.7-3.2 5.9-4.6 6.8-6.8 4.6s-1.2-7.7 2.8-15.9c8.5-17.1 16.8-25.5 29.5-29.5 5.2-1.6 5.1-1.7 8.5.1zm997.3 1.1c2.3 2.4-5.1 6.7-20.3 11.9-12.7 4.4-17.8 5.2-18.6 3-1.2-3.1 4.4-7.4 13.1-10 16-4.9 24.2-6.4 25.8-4.9zM1191 657c-4.3 6-16 10-33 11.4-4.2.3-8.2.2-9-.4-3.1-2 .6-4.4 13.2-8.5 6.9-2.2 13.2-4.6 13.9-5.2.8-.6 3.7-1.8 6.4-2.7 2.8-.9 6.1-2.3 7.5-3.1 2.4-1.3 2.5-1.3 2.8 2.1.2 2.3-.4 4.4-1.8 6.4zm-983-5.5c3.4 1.8 4.3 4.2 3.4 9-.5 2.6-.3 3.5.7 3.5.8 0-.9 1.3-3.7 2.9-11.4 6.2-21.5 14.8-29.6 24.9-3.2 4-5.8 6.9-5.8 6.4s-1.8-2.7-4-5c-2.2-2.2-4-4.9-4-5.9.1-8.9 21.8-31 35-35.6 2.5-.8 4.6-1.6 4.8-1.6.2-.1 1.6.6 3.2 1.4zm978.6 23c-.4 1.8-1.4 3.9-2.4 4.8-2.3 2.1-21 8.7-24.7 8.7-3.2 0-19.1-5.2-20.7-6.8-1.6-1.6.3-4 4.5-5.7 2.3-1 9.2-2.1 15.2-2.6 12.3-1.1 20.2-2.4 24.9-4.4 2.9-1.3 3.1-1.2 3.4.7.2 1.1.1 3.5-.2 5.3zm-110 20.3c11.5 10 14.4 13.3 14.4 16 0 3.5-3.6 3.7-8.3.5-5.2-3.6-23.7-21.4-23.7-22.9s4.1-3.2 6.2-2.6c.9.2 6.1 4.3 11.4 9zm99.5-3c-1.2 2.9-7.5 8.8-12 11.2-1.7.8-4.6 1.1-9 .7-6.9-.6-23.6-5.1-25.8-6.9-3.5-2.8.5-7.8 6.2-7.8 1.7 0 7.1.9 12.1 2 11.4 2.5 14.5 2.5 22.4-.4 3.6-1.2 6.7-2.1 6.9-2 .2.2-.2 1.6-.8 3.2zm-109.9 9.9c10.7 10.5 14.8 16.2 14.8 20.2 0 2.5 3.4 4.4 6.7 3.8 2.9-.5 3.7 1.1 5.9 12.3 2.9 15.6.9 23.6-6.6 25.5l-2.5.6.9-12.9c1.4-20.9 1.5-20.7-12-33.7-11.7-11.3-22.7-24.3-21.8-25.7 1.3-2.1 4.5 0 14.6 9.9zm-11.8 1.1c3.6 4.3 10.7 11.9 15.9 16.8 12.2 11.5 12.5 12.4 10.8 31.2-.7 7.5-1.7 14.5-2.2 15.4-1.1 1.9-5.7 5.3-6.4 4.7-.2-.3.1-8 .7-17.2.5-9.2.7-17.8.4-19.2-.4-1.4-7.3-9.2-15.6-17.4-13.9-13.9-17.2-18.3-15.5-21 .3-.6 1.7-1.1 3-1.1 1.8 0 4.1 2 8.9 7.8zm-62.6 10.7c10.4 17.4 11.5 19.9 9.6 21.8-1.2 1.2-4.4-1.4-6.3-5.1-1.8-3.4-4.8-8-15.4-23.5-2.2-3.1-3.6-6.1-3.2-6.7.9-1.5 12.3 8.5 15.3 13.5zM1038 701c1.1.6 3.4 3.2 5.1 5.8 1.8 2.6 8.7 10 15.2 16.4l12 11.8-.7 7.7c-1.5 18.5-2.5 26.9-3.1 28.6-.7 1.6-6.3 5.3-6.9 4.5-.4-.4 1.1-15.6 2.5-25.9 1.7-12.3 1-13.6-13.4-29.1-6.7-7-13-14.2-14-15.8-2.7-4.2-1-6.3 3.3-4zm98.1 4c6.8 1.6 14.4 3.3 17.1 3.6 4.8.7 4.8.7 4.8 4.5 0 7-5.4 9.7-13.1 6.5-4.7-2-23-12.4-25.1-14.3-1-.9-1.5-2-1.2-2.4.9-1.5 4.8-1 17.5 2.1zm-105.2 1.8c20.2 21.3 25.2 28.2 20.2 28.2-2.3 0-15.8-12.5-24.4-22.4-5.5-6.5-5.8-7-4.1-8.3 2.8-2.1 4.4-1.6 8.3 2.5zm-52.9 3.3c8.4 12 12 18.2 12 20.5v2.6l-4.2-2.5c-3.2-1.8-5.5-4.5-9-10.3-5-8.3-5.5-10.2-3.7-13.6 1.2-2.3.9-2.5 4.9 3.3zm31.5 2c2.5 3.9 7.7 10.4 11.5 14.4 7.4 7.8 8.9 11.5 4.7 11.5-1.9 0-4.1-2.3-10-10.2-6.7-8.9-13.7-20.3-13.7-22.2 0-.3.7-.6 1.5-.6.7 0 3.5 3.2 6 7.1zm-9.3-.4c1.2 2.7 5.5 9.2 9.6 14.5 7.9 10.4 8.8 13.7 3.4 12.3-1.5-.4-2.7-.7-2.8-.8-.4-1.3-13.5-23.3-15.6-26.5l-2.9-4.2h3.1c2.8 0 3.4.6 5.2 4.7zm21.1 0c2.3 2.5 7.7 8.3 12 12.8 8.4 8.9 9.9 12.5 4.9 12.5-2.1 0-4.4-1.7-9.9-7.3-8.4-8.5-17.3-19.6-17.3-21.4 0-.8 1.2-1.3 3-1.3 2.4 0 4 1.1 7.3 4.7zm108.8 4.2c5.9 3.6 11.4 7 12.4 7.6 2.3 1.4.5 6.1-2.9 7.6-5.4 2.5-8.5.6-18-10.7-6.6-8-8.4-10.9-7.4-11.5 2-1.3 4.3-.3 15.9 7zm-16.3.9c2 2 6.4 7.6 9.6 12.4 5.7 8.5 5.9 8.8 4.3 11.2-2.6 3.9-8.3 7.8-12 8.1l-3.4.3-.6-9.1c-.4-5.1-1.6-12.9-2.7-17.5-2.4-9.9-2.3-9.2-.5-9.2.8 0 3.2 1.7 5.3 3.8zm-11 4.4c2.8 4.6 4.7 16.4 4.3 26.6-.1 2.4-5.1 8.2-7 8.2-.7 0-1.1-2.3-1.1-5.8 0-6.9-2.3-20.6-4.3-25.4-1.4-3.4-1.4-3.5 1.2-5.1 3.7-2.3 4.7-2.1 6.9 1.5zm-162.7 13.7c-4.6 8.9-15.7 15.7-23.2 14.2-2.5-.5-3.4-1.2-3.4-2.6 0-1.5 1-2.2 4-2.8 9.9-2.1 11.8-2.9 15.9-7.3 2.4-2.5 5.2-6.1 6.2-8l1.9-3.5.3 3c.2 1.6-.6 4.8-1.7 7zm7.6 1.4c-1 7.6-7.2 15.1-16.6 19.9-7.9 4.1-13 4.8-15.5 2.2-2.8-2.7-2-4.4 2.2-4.4 5.4 0 13.1-2.5 17.2-5.5 4.2-3.1 8.6-9.5 10.2-14.6 1.5-5.3 3.2-3.7 2.5 2.4zm7.3.6c0 1-.7 4-1.5 6.7-2.7 9.1-20.2 23.4-28.5 23.4-4.8 0-5.3-1.6-.9-2.9 7-2.1 14.3-6.8 20.3-13 5.9-6.3 7.6-9.4 7.6-14.1 0-2.2.4-2.8 1.5-2.4.8.4 1.5 1.4 1.5 2.3zm6.9 2c3 1.9-1.4 17.1-5.9 20.5-.9.6-3.2 3.2-5.3 5.8-5.9 7.2-16.6 11.5-21.8 8.8-2.8-1.6-2.3-2.7 1.5-3.4 4.2-.8 14.8-7.7 16.9-11 .9-1.3 3.3-4.4 5.5-6.9 2.5-2.9 4.5-6.4 5.3-9.6 1.3-5.4 1.6-5.6 3.8-4.2zm10.4 10.1c-.3 7.6-6.9 20.5-14.3 28.2-5.1 5.3-6 5.8-9.8 5.8-2.3 0-5-.5-6-1.1-1.7-1-.8-2.1 7.6-10.3 12.2-11.7 15.7-16.9 17.7-25.9.4-2.2 1.1-2.8 2.8-2.5 2 .3 2.2.8 2 5.8zm85.6-5.1c.8.6 1.1 1.8.7 3.7-.3 1.6-1.2 8.7-2.1 15.8-1.5 13.4-2.6 15.9-7.9 18.8-1.7.9-1.8.8-1.2-1.3 1.1-3.9 5.6-28.2 5.6-30.6 0-2.8 1.7-7.3 2.7-7.3.5 0 1.4.4 2.2.9zm-77.5 3.7c.3.9.6 2.8.6 4.2 0 3.2-8.2 23.7-10.5 26.2-1.7 1.9-11.4 7.4-12 6.8-.2-.2 2.4-3.9 5.7-8.3 7.8-10.4 11.6-18.1 12.4-24.9.7-5.5 2.5-7.4 3.8-4zm68.6 1c0 3.4-4.8 28.2-6 31.1-1.6 3.7-8.8 8.3-13.2 8.3-4.4 0-4.6-.5-1.4-3.9 1.3-1.5 4.4-6.7 7-11.6 3.7-7.2 4.8-10.4 5.3-15.9.7-7.4 2.6-10.6 6.3-10.6 1.5 0 2 .7 2 2.6zm-54.6 3c1.3 3.5.3 6.9-5.5 18.1-7.3 14.3-11.2 18.3-17.6 18.3-2.4 0-4.3-.3-4.3-.6s2-2.5 4.4-5c2.5-2.4 5-6.1 5.7-8.2 1.3-4 9.5-20.9 11.1-23 1.5-1.7 5.5-1.5 6.2.4zm14.6-.6c.5 0 1.4.9 2 2 1.8 3.3-.6 8.6-6.9 15.6-3.1 3.4-7.6 9-10.1 12.4-4.6 6.4-10.6 11.8-11.7 10.6-.4-.3.3-1.6 1.4-2.9 2.6-2.8 8.8-14.5 13.9-26 4.2-9.7 6.8-13.1 9.1-12.3.8.3 1.9.6 2.3.6zm15.2 1.4c.9 2 .7 3.5-1.1 8-2 4.8-5.6 9.6-19.8 26.5-3.7 4.4-8.4 7.1-12.5 7.1-2.2 0-2.2 0 .4-2.8 1.4-1.5 4.5-5.4 6.8-8.7 2.4-3.3 6.9-8.7 10-12.1 3.3-3.6 6.3-8 7.4-11 3.5-9.5 6.5-11.9 8.8-7zm11.3-.4c1.3 1.5 1.6 2.8 1.1 5.7-1.1 5.8-9 21.6-13.2 26.3-4.4 4.8-10.5 8.3-13.9 7.8-2.3-.3-1.8-1.2 6.9-12.1 7.4-9.4 9.7-13 11.1-18 2.1-7.2 4.2-11.7 5.4-11.7.4 0 1.6.9 2.6 2zm-575 1.5c2.2.8 5.6 1.4 7.6 1.5 3.5 0 3.8.3 5.9 5.4 1.2 3 3.2 6.4 4.6 7.7 2 1.9 2.4 3.2 2.4 8.6 0 15.4-5 38.9-12.6 59.1-6.1 16.1-9 22.3-14.4 30.2-4.5 6.6-16.2 17.9-22.2 21.3-7.1 4.2-32.3 14.6-48.8 20.2-8.5 2.9-18.1 6.2-21.4 7.4l-5.9 2.1-3.8-4.4c-7.6-8.6-19.6-10.9-29.8-5.6-2.4 1.2-7.1 2.6-10.5 3.1-3.3.5-8.1 2-10.6 3.2-3.7 1.9-5.2 2.2-8.5 1.5-4.6-1-11.8-.2-15.6 1.8-3.2 1.6-8.5 1-15.4-1.8-3.7-1.5-6.1-1.9-9.9-1.4-3.9.4-6 .1-9.8-1.7-2.6-1.2-4.7-2.5-4.8-2.8 0-.7 15.7-8.5 21.2-10.5 12.9-4.5 35.6-9.4 43.7-9.4 2 0 7.1 1.1 11.4 2.5 15.5 5 29.9 2.7 49.8-7.6 6.3-3.3 10.3-6.4 17.2-13.4 10.6-10.6 13.3-15.6 14.8-27.6 1.7-14 5.8-31 9.4-38.6 3.8-8.1 9.5-17.7 18-30.3 3.1-4.7 6.5-10.2 7.6-12.2 2.1-4.1 4.9-6.3 10.7-8.4 4.9-1.7 14.7-1.7 19.7.1zm212.8 38.3c5.8 6.5 5.8 8.8-.5 14.4-4.7 4.4-6.3 4.6-16.7 1.8-7.8-2.1-20.1-2.5-31.4-1.1-7.3.9-10 3.4-13.3 12.7-3.1 8.4-4.2 21.8-2.5 29 1.3 5.6 0 14.1-4.5 27.6-5 15.2-21.2 33.1-36.5 40.4-7.1 3.4-9.5 5.8-12.9 12.5-5.2 10.1-10.6 14.8-19.2 16.4-5.2 1-9.8-.9-14.8-6-9.5-9.7-17.1-8-23 5.2-2.3 5-3.7 6.6-7.5 8.9-7.9 4.6-15.9 5.7-66 9-16.4 1-26.8 2.4-36.7 4.9-22.3 5.7-32.7 10.7-60.1 29.2-31.5 21.1-50.9 29.7-74.3 32.8-50.3 6.5-100.3-9.9-133.1-43.8-10.1-10.4-11-12.6-13.8-34.5-1.4-10.3-2.9-20.7-3.5-23.2-.5-2.5-1.4-7.7-2-11.5-.5-3.9-2-11.8-3.1-17.6-1.4-6.8-1.9-12-1.5-14.3.8-4 2.3-4.8 2.8-1.4.2 1.3 1 2.4 1.9 2.6 1.4.2 1.5-.5 1.2-4.5-.4-3.9.1-6.3 2.7-12.4 1.8-4.2 3.9-8.4 4.6-9.4 1.3-1.8 1.5-1.8 4 .6 4.4 4.1 4.7 5.5 1.9 8.3-2.7 2.8-7.5 12-7.5 14.7 0 .8.7 2.4 1.5 3.5 1.4 1.8 1.4 1.8 1.5-.4 0-2.7 5.2-13.3 7.4-15.1 1.2-1 2.3-.9 5.8.7 2.4 1 5.2 2.9 6.2 4.1 1.9 2.1 1.9 2.2-1.2 9.9-3.1 7.5-3.9 11.2-2.6 12.5.7.7 9.4-16.9 9.4-19 0-4.2 12.1.2 16.4 6 2 2.7 2 2.8.2 7.5-2.3 5.7-3.2 12.2-1.8 12.2.6 0 2.3-3.2 3.9-7.1l2.8-7 4.5.6c5.5.8 13.5 4.8 14.4 7.2 1.1 2.8-.5 12.4-3 18-4.1 9.5-8.8 12.2-15.3 8.8-3.2-1.6-4.1-3.3-4.1-7.4 0-3.1-1.6-5.1-4.2-5.1-1.9 0-2.4 1.5-.9 2.4.4.3 1.1 2.7 1.4 5.3.6 5.5 3.4 8.5 9.5 10.4 5.3 1.6 10.2-.6 14.3-6.5 2.1-2.9 4.2-4.7 6.1-5.1 1.7-.4 4.4-2.6 7.1-5.8 8.6-10.5 15.3-16.7 17.9-16.7 8 0 13.3 14.6 9.4 25.8-6.2 17.4-25.9 21.1-33.5 6.4l-1.9-3.7-.8 2.9c-1.7 6.8 7.5 14.6 17.1 14.6 5.5 0 13.3-3.9 17.6-8.7 2.6-2.9 4.7-4.2 7.5-4.6 2.1-.4 6.7-2.1 10.1-3.8l6.2-3.2 5.4 2.7c3.9 1.9 6.3 2.4 8.5 2 5-1 8 .3 10.7 4.6 2.7 4.3 4.5 5.1 4.5 2.1 0-1.1.7-2.6 1.4-3.4 2-2 11.9-3.1 14.6-1.7 1.7.9 3 .8 6.1-.4 3.4-1.4 4.4-1.4 7.2-.2 1.7.7 4.1 2.3 5.1 3.5 2.5 2.7 4.6 2.7 4.6-.2 0-1.3 1.5-3.5 4-5.5 3.2-2.6 4.7-3.2 8.8-3.2 3.8 0 5.9-.7 9.3-3 4.9-3.3 8.3-3.7 13.2-1.6 5.4 2.3 8 5.9 8.5 11.9 1.1 13-10.5 23.6-25.8 23.7-3.6 0-8-.4-9.7-.9-4.2-1.2-5.2.3-1.6 2.6 4.4 2.9 19.3 2.5 25.7-.6 9.6-4.7 14.3-11.2 16.1-21.9.4-2.3 1-4.2 1.3-4.2 10.8-.5 43.5-9.2 59.1-15.6 29.4-12.2 44.9-24.1 56.4-43.2 7.3-12 20.4-42.8 23.8-55.6 2.2-8.3 2.9-13.4 2.9-20.2 0-5 .3-9.3.6-9.7.4-.3 2.8.5 5.4 1.8 2.7 1.4 8.1 3.4 12.2 4.5 7.6 2.1 8.6 2.9 12 9.4 3.7 7.2 2.9 13.9-3.7 31.6-5.4 14.4-5.9 16.2-6.3 25.8-.3 8.1-.1 11.3 1.3 14.8 2.7 7.1 10 11.4 19.6 11.4 4.3 0 5.5-.6 12.3-6 9.9-7.9 14.2-13.6 25.1-33 5-8.8 12.3-20.6 16.3-26.3 4-5.6 9.5-13.4 12.1-17.2C613 788.4 616 787 635.4 787c15 0 19.4-.9 23.9-5l3.2-2.9 3 3.7c1.7 2 5.2 6.1 7.8 9zm-420.5 39.8c2.8 1.8 6.1 8.7 6.2 12.7 0 1.5-.7 4.3-1.5 6.3-2.7 6.5-20.9 13-25.4 9-.9-.7-3.1-1.6-4.9-1.9-3-.6-3.3-.4-4.8 3.4-2 4.8-3.8 5.9-9.9 5.9-2.5 0-6.6.5-9.1 1.1-5.5 1.4-12.7-.2-11.8-2.6 1.2-3.1-2.6-2.7-6.6.7-5.2 4.5-9.4 5.7-21.2 6l-9.8.2-.6 3.3c-.4 1.9-.9 3.2-1.3 3-5.9-3.2-10.8-4.8-13.5-4.4-2.4.3-3.8-.2-6.3-2.4-1.8-1.5-5.1-3.4-7.3-4-2.6-.8-4-1.8-4-2.9 0-2.6-6-9.9-8.6-10.6-4.3-1.1-7.9 3.9-13.6 19.1l-1.8 5 .3-7c.6-11.2 6.7-21.2 17.1-28 1.4-.9 3-1.4 3.5-1.1 1.2.8 3.3 10.7 2.9 13.3-.2 1.1.3 1.8 1.2 1.8.9 0 1.6-1.1 1.8-2.8.3-2.4.7-2.7 4.2-2.7 2.2 0 7 1 10.6 2.2 5.4 1.7 7.1 2.8 8.6 5.5 1.1 1.9 2.8 3.3 3.9 3.3 2.1 0 1.7-2-1.3-5.9l-1.9-2.5 4.8-2.3c2.6-1.2 6.3-2.3 8.1-2.3 2.3 0 4-.8 6-3 2.6-2.9 2.8-3 6.5-1.7 2.1.8 5.2 2.8 7 4.5 5.2 5 8 3.4 3.7-2.1-1.1-1.4-2-2.8-2-3.1 0-.3 1.6-1.8 3.7-3.3 2.9-2.2 4.8-2.8 9.7-3 3.4-.2 9.8-.5 14.2-.9l8.1-.6.7 2.9c.9 3.6 3.3 7.3 4.8 7.3 1 0 .9-1.9-.8-9.2-.6-2.7-.6-2.7 2.7-1.8 4 1.2 6.3.6 10.7-2.7 6-4.5 11.8-5.1 17-1.7z"/>
  <path class="svg-elem-2" d="m478.6 465.4-7.3 7.4-4.5-.5c-4.1-.5-4.8-.3-6.3 2.1-1.6 2.5-1.6 2.7.4 6.1 3.2 5.5 2.8 6.5-2.6 6.5-8.2.1-12.5 1.6-15.8 5.5-1.6 2-5 5.6-7.5 8.1-3.8 3.8-4.2 4.4-2.3 4.4 2.7 0 7.1-3.7 10.7-8.9 3.2-4.6 7-6.1 15.2-6.1 2.7 0 5.5-.5 6.2-1.2 1.6-1.6 1.5-5.9-.3-8.2-.8-1.1-1.5-2.9-1.5-3.9 0-1.8.5-1.9 4.7-1.3 4.6.6 4.7.5 8.7-4.1 2.3-2.5 6.1-6.6 8.5-9 3.1-3.1 3.9-4.3 2.6-4.3-.9 0-5 3.3-8.9 7.4zM537.8 491.5c-5.7 2.1-11.8 6.6-17.3 13-2.7 3.1-8.3 8.9-12.4 12.9-28.7 27.6-37.2 37.5-44.2 52.1-6.7 13.8-10.4 37.2-7.9 50.4 1.2 6.8 7.4 22.8 11.5 29.6 3 5 16.8 18.5 26 25.5 8.4 6.4 16.2 10 28.8 13.4 11.3 3.1 15.5 3.2 23.5.8 11.7-3.7 32.2-20.1 42.9-34.5 17.5-23.5 24-44.9 18.9-62.1-2.2-7.3-15-29.2-23.5-40.1-18.1-23.1-17.8-22.6-15.6-31.7 2-8 1.6-14.8-1.1-20.3-2.8-5.6-12.4-10.5-20.2-10.4-3.2 0-7.4.7-9.4 1.4zm-18.7 53c4 1.4 9.9 5.9 9.9 7.6 0 .3-2 1.4-4.4 2.3-13.3 5.1-22.4 19-17.1 26 .8 1.1 6.1 5.2 11.7 9.1 5.7 4 11.3 8.7 12.6 10.5 3.7 5.5 2.5 16.7-2.5 22.2-2.9 3.2-10.7 2.4-20.2-2.2-9.3-4.5-12.7-4.9-16.5-1.9-4.2 3.3-5.6 7.1-5.6 14.9 0 10.7 2 13.4 14.8 19.9 5 2.5 7.3 3.1 12.7 3.1 10.2 0 13.8-2.7 22-16.5 2.2-3.7 4.8-7.8 5.8-9.1 1.8-2.3 8.5-6.4 10.5-6.4.5 0 3 2.1 5.6 4.6l4.6 4.7 5.8-.6c3.1-.3 6.5-.8 7.6-1.3 1.6-.6 1.7-.4 1.1 1.7-4.3 14.6-27 35.4-44.1 40.5-2.8.8-8.9 1.5-13.5 1.6-7.5.2-9.2-.1-14.3-2.6-12.1-5.9-28.7-26-36.1-43.5-5.3-12.6-6.7-25.7-4.5-40.1 1.9-11.6 14.8-34.3 22.6-39.6 8.9-5.9 22.5-8 31.5-4.9zM331.7 504.7c-1.5 1.4-.6 2.9 2.6 4.2l3.2 1.3-4 1.2c-3 .9-4.5 2.1-6 4.8-1.9 3.6-1.9 3.7-.1 5.7 2.1 2.3 6.5 2.7 9.8 1 2.3-1.2 4.8-6.7 4.8-10.4 0-4.7-7.7-10.5-10.3-7.8zM402.2 512.7c-26.3 16.8-41.9 25.8-55 31.8-19 8.6-20 9.1-21.7 12.5-2.1 4.1-1.9 6 1 9l2.5 2.7-9.8 5.1c-5.4 2.8-16 7.4-23.5 10.2-7.6 2.8-14.6 5.6-15.6 6.2-4.6 2.8-6.7 10.8-3.3 12.7 2.1 1.3 3.2 1.1-17.7 2-13.1.5-15.5.9-16.5 2.4-2.4 3.8 1.4 6.7 20.1 15.1 7.9 3.5 16 7.8 18.2 9.5 4.5 3.6 6.1 3.9 6.1 1.2 0-3.3-7.2-7.9-23.6-15.1-8.7-3.9-16.2-7.4-16.8-8-.7-.7 3-1 11.2-1 29.7 0 58.9-6.3 81.6-17.7 5.3-2.7 7.1-3.2 7.7-2.2.9 1.5.6 1.7-18.6 9.1-24.7 9.5-35.9 12-55.3 12.1-7.4 0-10.5.4-11.4 1.4-1.7 2.1.4 3.7 11.4 8.3 13.8 5.7 15.6 5.5 31.7-2.7 7.2-3.7 13.3-6.4 13.6-6.1.3.3-4.6 3.6-11 7.3-6.6 3.8-12.6 8.1-14 10-3.8 4.9-5.9 11.9-5.2 17.5 1.6 13.5 11.4 21.4 26.8 21.4 6.7.1 8.4-.3 15-3.6 8.6-4.3 15.3-10.4 17.9-16.2 4.6-10.7 22.5-46 27.2-53.8 3.9-6.4 9.9-13.4 22.4-26.5 30-31.1 37.5-41 35.8-46.6-1-3.5-3.4-5.6-7-6.3-2.9-.5-3.5-1.2-4.4-4.4-1.9-7.2-4.8-6.8-19.8 2.7zm16.5-2.1c.2 1.4-2.4 3.7-10.5 9.2-5.9 4-12.7 9.1-15.2 11.3l-4.5 4 5-2.7c2.8-1.5 9.6-5.6 15.2-9.1 11.4-7.1 14.9-7.8 18.9-3.8 2.4 2.4 2.4 2.6.9 6.1-1.8 4.2-9.3 13-28.4 33.3-14.3 15.2-30.7 29.1-37.9 32.3-4.2 1.9-4.3 1.9-7.7-.2-3-1.9-3.5-2.7-3.5-6.1 0-3.3-.4-4.1-3-5.4-1.6-.9-3-2.1-3-2.7 0-2.6 5.8-9.3 12.5-14.4 7.7-5.9 16.9-14 14.5-12.8-.8.4-6.7 4.1-13 8.2-11.4 7.4-17.3 10.2-21.4 10.2-2.4 0-9.6-5.5-9.6-7.4 0-2.4 4.7-5.4 19.6-12.3 14.2-6.6 37.8-20.2 59.4-34.2 5.2-3.3 9.9-6 10.5-5.8.5.2 1.1 1.2 1.2 2.3zM229.3 617.7c-.7.2-4.2 4-7.8 8.4-5.6 6.8-6.4 8.2-5.5 9.9 2.4 4.5 9.4 1.3 14.4-6.7 3.8-6 4.4-9.1 2.4-11.1-1.3-1.3-1.6-1.3-3.5-.5zM737 623.1c-16.2 6.2-18.6 6.8-25.8 6.9-4.3 0-8.7-.6-10.9-1.5-3.9-1.6-4.9-1.4-4 .9.8 2 9.8 4.6 15.6 4.6 6.4-.1 12.2-1.5 22.2-5.5 4.8-1.9 9.9-3.5 11.5-3.5 4.5 0 10.9 3.7 17.6 10.2 7.2 7 9 7.8 16.3 7.8 6 0 22.4 5.3 31.7 10.2 3.1 1.6 10.9 7.7 17.4 13.4 11.4 10.1 14.4 12 17.9 11.2 2.6-.5 1.9-2.2-1.3-3-1.5-.4-7.1-4.5-12.3-9-16.8-14.7-21.7-17.7-39.9-23.9-5.5-1.9-10.5-2.9-14.3-2.9-5.7 0-5.7 0-13.3-7-4.1-3.9-8.9-7.7-10.5-8.6-5.1-2.6-11.7-2.7-17.9-.3z"/>
  <path class="svg-elem-3" d="M250.6 629.7c-.3 1-1 6.7-1.6 12.8-.6 6-1.3 13.1-1.6 15.6-.6 4.1-.3 5 2.2 7.8 2.3 2.4 4.2 3.4 8.8 4.2 7.2 1.3 20.3-.2 25.5-2.9 3.1-1.6 3.6-2.4 3.9-5.8.4-5.6-2.6-9.4-7.6-9.5-2 0-6.6-1.3-10.1-2.7-5.3-2.2-6.6-3.2-7.3-5.7-3.3-11.1-4.2-13.1-6.6-14.3-3.5-1.6-5-1.5-5.6.5zM239.8 634.2c-10.1 13.7-12 16.9-10.8 18.3.7.8 1.8 1.5 2.5 1.5 4.3 0 14.8-14.3 14.3-19.5-.4-4.2-3.1-4.3-6-.3zM452.7 649.7c-1.1 1.1-.8 2.3.6 2.3 1.7 0 4.7 3.2 4.7 4.9 0 .7-.6 1.1-1.4.8-.8-.3-3-.9-5-1.2-2.9-.6-3.9-.3-6 1.8-3.3 3.3-2.4 6.1 2.7 9l3.7 2.1 4.5-2.2c5.1-2.5 7-5.8 5.9-10.6-1.1-5.5-7-9.6-9.7-6.9zM286.8 672.7c-8 6.3-14.4 15.9-13.4 19.9 1.1 4.2 4.3 2.8 13.9-6.3 10.9-10.2 12.6-12.6 11.1-15.1-2-3.1-6.5-2.6-11.6 1.5zM310.5 694.2c-10.4 9.7-15.2 17.8-10.7 17.8 2.2 0 18-11.7 21.1-15.6 1.1-1.5 2.1-4 2.1-5.5 0-2.5-.4-2.9-3-2.9-2.2 0-4.5 1.5-9.5 6.2zM337.7 709c-12.1 8.1-18 16.2-14.4 19.8 2.3 2.2 4.4 1 15-8.2 9.5-8.4 12.1-11.5 11.5-14.3-.6-3.3-4.3-2.5-12.1 2.7zM722.3 362.6c-.9 2.4.4 13.4 2.2 18.9.9 2.8 4.4 10.6 7.8 17.5l6.1 12.5.2 9.5c.3 22.3 14.6 47.3 34.9 61 8.6 5.8 14.2 8.6 26.7 13.4 12.6 4.8 14.8 6.5 21.6 16.3 16.1 23.1 36.9 44.3 50.3 51.3 12.7 6.6 15.3 4.7 3.4-2.4-3.8-2.3-11.1-8.2-16.3-13.1-9.2-8.8-26.4-28.9-33.1-39-7-10.3-8.4-11.3-27.6-19.5-21.4-9-36.3-21.3-45.3-37.2-6.6-11.6-9.3-20.6-9.9-32.3-.5-9.6-.8-10.4-5.3-19-7.7-14.4-10.2-21.5-12.5-35.8-.6-3.8-2.1-4.9-3.2-2.1z"/>
  <path class="svg-elem-4" d="M688.2 381.2c-2.8 2.8.4 21.6 6.2 36.8 4 10.2 4.3 12.8 2.1 19-2.4 6.8-1.9 17.8 1 25.7 7.9 20.9 20.7 34.2 43.5 45.2 9.3 4.5 13.4 5.9 28.1 9.3 4.4 1 10.9 7.3 15.1 14.7 3.7 6.6 22 25.7 30.3 31.6 10.9 7.8 23.2 13.4 32.3 14.7 6.3.9 8.5.9 9.4 0 1.3-1.3 1.4-1.3-8.7-3.7-6.8-1.6-17.4-6.7-26.5-12.8-8.1-5.4-27-24.7-32.5-33.2-6.2-9.6-12-15.1-17.2-16.3-2.1-.5-6.9-1.6-10.8-2.5-8.9-2.2-27.1-11-35.2-17.1-9.8-7.4-17.8-18.3-23.1-31.6-3.2-8-3.7-13.6-1.8-20.9 2.3-9.1 2-12.7-1.9-23.6-3.9-10.8-7.6-26-7.7-31.8 0-4.1-.9-5.2-2.6-3.5z"/>
  <path class="svg-elem-5" d="M703.1 400c-.1 4.2 2.7 13.6 5.9 20.1 2.9 5.7 3 6.3 2 11.6-1.3 7.3-1.3 18.7.1 23.8 1 3.7 5.8 11.9 6.5 11.2.2-.2-.8-3-2.1-6.3-2.1-5-2.5-7.6-2.5-16.4 0-5.8.5-12.5 1.1-14.9.8-3.5.7-4.5-.6-5.5-1.7-1.3-6-11.3-8.6-20.1-1.1-3.7-1.8-5-1.8-3.5zM1022 568.3c0 .2 2 5 4.5 10.6s6.3 15.3 8.4 21.5c3.9 11.4 7.9 20.2 8.7 19.4.7-.7-7.1-25.8-10.5-33.8-4.1-9.7-8.3-17.3-9.8-17.8-.7-.2-1.3-.2-1.3.1zM1036 568.9c0 .7 1.5 4.5 3.4 8.4 4.6 9.7 8.9 22.2 11.6 33.9 2.1 9.3 4 12.7 4 7.4 0-8.8-6.5-31-12.2-41.8-3.1-5.9-6.8-10.1-6.8-7.9zM1051 573.7c0 .9 1.5 4.4 3.4 7.8 1.9 3.4 5.8 13.3 8.7 22.1 4.4 13.5 5.3 15.5 6.1 13.4 1.8-4.9-4.9-26.7-11.6-37.5-4.7-7.4-6.6-9.1-6.6-5.8zM106.4 890.1c-.3.6-1.7.9-3 .6-3-.5-4 .8-2.3 2.9.8 1 2.4 1.4 4.1 1.2 1.6-.3 2.8 0 2.8.6s.5 2.8 1.1 4.9c1.4 5 4.7 7.1 11.4 6.9 5.9-.1 6.6.4 8.4 6 1.5 4.5 6.3 8.8 9.8 8.8 3.1 0 8.3-5.1 8.3-8.1 0-2.2-.2-2.1-3.5 1.1-3.1 3-3.8 3.3-6.2 2.4-2-.7-3.2-2.2-4.6-5.9-2.6-6.9-3.2-7.5-9.1-7.5-7.6 0-9.9-1.6-11.1-7.5-.5-2.8-1.4-5.6-1.8-6.3-1-1.5-3.3-1.6-4.3-.1zM116.9 921.2c-2.3 3.2-2.4 3.9-2.4 18.8 0 16.3 1.1 22.2 4.4 24 1.3.6 2.4.5 3.7-.5 1.8-1.2 1.9-2.8 1.7-21-.1-10.9-.4-20.8-.7-22.1-.9-3.4-3.8-3-6.7.8zM140.5 936.2c-3.6 3.2-5.2 16.4-3.6 29.2 1.3 10.2 2.7 13.6 5.7 14.7 3.1 1.1 4.5-.3 5.5-5.2.9-5.1 1.2-36.9.3-39.3-.9-2.3-4.9-2-7.9.6zM212.5 940c-.9 1.5 2.1 6.5 5.7 9.5 4.4 3.8 14.2 8.1 20.1 8.9 7.4 1.1 12.4-.1 16.8-4.1 3.2-2.9 4-3.2 4.5-1.9.3.9 1.2 1.6 1.9 1.6 1.9 0 2.7-2.8 1.5-5.1-1.7-3-5.8-2.4-10.1 1.6-3.7 3.3-4.3 3.5-10.8 3.5-5.8 0-7.9-.5-13.9-3.6-4.2-2-8.5-5.1-10.5-7.5-3.6-4.1-4.2-4.5-5.2-2.9zM168.8 944.2c-4.1 5.4-5 9.6-5.5 24.3-.5 12.8-.4 14.2 1.4 16.4 1.5 1.8 2.6 2.3 4.5 1.8 4.2-1.1 6.1-8.3 7.3-26.7 1-16.2-2.3-23-7.7-15.8z"/>
  <path class="svg-elem-6" d="M304.4 947.5c-.7 1.9-1.4 3.8-1.4 4.3 0 1.4-5.4 6-8.4 7.2-1.6.6-6.3 1.1-10.5 1.2-6.5.2-8.3-.2-12.8-2.5-8.1-4.2-11.1-3.3-5.3 1.6 5 4.3 12.2 6.1 21.3 5.4 12.1-1 18.7-5.5 20.7-14.1 1.5-6.8-1.1-9.1-3.6-3.1zM202.7 958.8c-1.6 1-2.7 2.6-2.7 3.8 0 1.2-.7 2.8-1.6 3.5-2.2 1.8-3.2 4.7-4.8 14.2-1.6 9-1 11.7 2.8 11.7 3.7 0 5.2-2.8 9-16.2 4.6-16.1 3.8-20.9-2.7-17zM219.6 990.6c-2.7 2.7-1.9 4 2.1 3.6l3.7-.5-2.7 3.2c-5.3 6.3-2.1 12.6 6.1 12.4 4.3-.1 8.2-4 8.2-8.1 0-8.2-12.4-15.7-17.4-10.6z"/>
</svg>